%TF.GenerationSoftware,KiCad,Pcbnew,8.0.6*%
%TF.CreationDate,2025-03-21T23:17:01+00:00*%
%TF.ProjectId,imu_rc_car_encoders,696d755f-7263-45f6-9361-725f656e636f,rev?*%
%TF.SameCoordinates,Original*%
%TF.FileFunction,Drillmap*%
%TF.FilePolarity,Positive*%
%FSLAX45Y45*%
G04 Gerber Fmt 4.5, Leading zero omitted, Abs format (unit mm)*
G04 Created by KiCad (PCBNEW 8.0.6) date 2025-03-21 23:17:01*
%MOMM*%
%LPD*%
G01*
G04 APERTURE LIST*
%ADD10C,0.050000*%
%ADD11C,0.200000*%
%ADD12C,0.100000*%
G04 APERTURE END LIST*
D10*
X1441421Y-1241421D02*
X7641421Y-1241421D01*
X7641421Y-1241421D02*
G75*
G02*
X7841419Y-1441421I-1J-199999D01*
G01*
X3600991Y-2441431D02*
G75*
G02*
X3260991Y-2441431I-170000J0D01*
G01*
X3260991Y-2441431D02*
G75*
G02*
X3600991Y-2441431I170000J0D01*
G01*
X5820991Y-2441431D02*
G75*
G02*
X5480991Y-2441431I-170000J0D01*
G01*
X5480991Y-2441431D02*
G75*
G02*
X5820991Y-2441431I170000J0D01*
G01*
X1241421Y-3441421D02*
X1241421Y-1441421D01*
X1441421Y-3641421D02*
G75*
G02*
X1241419Y-3441421I-1J200001D01*
G01*
X1241421Y-1441421D02*
G75*
G02*
X1441421Y-1241421I200000J1D01*
G01*
X7841421Y-3441421D02*
G75*
G02*
X7641421Y-3641421I-200001J1D01*
G01*
X7841421Y-1441421D02*
X7841421Y-3441421D01*
X7641421Y-3641421D02*
X1441421Y-3641421D01*
D11*
D12*
X1435000Y-1435000D02*
X1465000Y-1465000D01*
X1465000Y-1435000D02*
X1435000Y-1465000D01*
X1435000Y-1685000D02*
X1465000Y-1715000D01*
X1465000Y-1685000D02*
X1435000Y-1715000D01*
X1435000Y-1935000D02*
X1465000Y-1965000D01*
X1465000Y-1935000D02*
X1435000Y-1965000D01*
X1435000Y-2185000D02*
X1465000Y-2215000D01*
X1465000Y-2185000D02*
X1435000Y-2215000D01*
X1435000Y-2435000D02*
X1465000Y-2465000D01*
X1465000Y-2435000D02*
X1435000Y-2465000D01*
X1435000Y-2685000D02*
X1465000Y-2715000D01*
X1465000Y-2685000D02*
X1435000Y-2715000D01*
X1435000Y-2935000D02*
X1465000Y-2965000D01*
X1465000Y-2935000D02*
X1435000Y-2965000D01*
X1435000Y-3185000D02*
X1465000Y-3215000D01*
X1465000Y-3185000D02*
X1435000Y-3215000D01*
X1435000Y-3435000D02*
X1465000Y-3465000D01*
X1465000Y-3435000D02*
X1435000Y-3465000D01*
X1685000Y-1435000D02*
X1715000Y-1465000D01*
X1715000Y-1435000D02*
X1685000Y-1465000D01*
X1685000Y-1685000D02*
X1715000Y-1715000D01*
X1715000Y-1685000D02*
X1685000Y-1715000D01*
X1685000Y-1935000D02*
X1715000Y-1965000D01*
X1715000Y-1935000D02*
X1685000Y-1965000D01*
X1685000Y-2935000D02*
X1715000Y-2965000D01*
X1715000Y-2935000D02*
X1685000Y-2965000D01*
X1685000Y-3185000D02*
X1715000Y-3215000D01*
X1715000Y-3185000D02*
X1685000Y-3215000D01*
X1685000Y-3435000D02*
X1715000Y-3465000D01*
X1715000Y-3435000D02*
X1685000Y-3465000D01*
X1935000Y-1435000D02*
X1965000Y-1465000D01*
X1965000Y-1435000D02*
X1935000Y-1465000D01*
X1935000Y-1685000D02*
X1965000Y-1715000D01*
X1965000Y-1685000D02*
X1935000Y-1715000D01*
X1935000Y-1935000D02*
X1965000Y-1965000D01*
X1965000Y-1935000D02*
X1935000Y-1965000D01*
X1935000Y-2935000D02*
X1965000Y-2965000D01*
X1965000Y-2935000D02*
X1935000Y-2965000D01*
X1935000Y-3185000D02*
X1965000Y-3215000D01*
X1965000Y-3185000D02*
X1935000Y-3215000D01*
X1935000Y-3435000D02*
X1965000Y-3465000D01*
X1965000Y-3435000D02*
X1935000Y-3465000D01*
X2185000Y-1435000D02*
X2215000Y-1465000D01*
X2215000Y-1435000D02*
X2185000Y-1465000D01*
X2185000Y-1685000D02*
X2215000Y-1715000D01*
X2215000Y-1685000D02*
X2185000Y-1715000D01*
X2185000Y-1935000D02*
X2215000Y-1965000D01*
X2215000Y-1935000D02*
X2185000Y-1965000D01*
X2185000Y-2685000D02*
X2215000Y-2715000D01*
X2215000Y-2685000D02*
X2185000Y-2715000D01*
X2185000Y-2935000D02*
X2215000Y-2965000D01*
X2215000Y-2935000D02*
X2185000Y-2965000D01*
X2185000Y-3185000D02*
X2215000Y-3215000D01*
X2215000Y-3185000D02*
X2185000Y-3215000D01*
X2185000Y-3435000D02*
X2215000Y-3465000D01*
X2215000Y-3435000D02*
X2185000Y-3465000D01*
X2435000Y-1435000D02*
X2465000Y-1465000D01*
X2465000Y-1435000D02*
X2435000Y-1465000D01*
X2435000Y-1685000D02*
X2465000Y-1715000D01*
X2465000Y-1685000D02*
X2435000Y-1715000D01*
X2435000Y-1935000D02*
X2465000Y-1965000D01*
X2465000Y-1935000D02*
X2435000Y-1965000D01*
X2435000Y-2685000D02*
X2465000Y-2715000D01*
X2465000Y-2685000D02*
X2435000Y-2715000D01*
X2435000Y-2935000D02*
X2465000Y-2965000D01*
X2465000Y-2935000D02*
X2435000Y-2965000D01*
X2435000Y-3185000D02*
X2465000Y-3215000D01*
X2465000Y-3185000D02*
X2435000Y-3215000D01*
X2435000Y-3435000D02*
X2465000Y-3465000D01*
X2465000Y-3435000D02*
X2435000Y-3465000D01*
X2685000Y-1435000D02*
X2715000Y-1465000D01*
X2715000Y-1435000D02*
X2685000Y-1465000D01*
X2685000Y-1685000D02*
X2715000Y-1715000D01*
X2715000Y-1685000D02*
X2685000Y-1715000D01*
X2685000Y-3185000D02*
X2715000Y-3215000D01*
X2715000Y-3185000D02*
X2685000Y-3215000D01*
X2685000Y-3435000D02*
X2715000Y-3465000D01*
X2715000Y-3435000D02*
X2685000Y-3465000D01*
X2935000Y-1435000D02*
X2965000Y-1465000D01*
X2965000Y-1435000D02*
X2935000Y-1465000D01*
X2935000Y-1685000D02*
X2965000Y-1715000D01*
X2965000Y-1685000D02*
X2935000Y-1715000D01*
X2935000Y-3435000D02*
X2965000Y-3465000D01*
X2965000Y-3435000D02*
X2935000Y-3465000D01*
X3185000Y-1435000D02*
X3215000Y-1465000D01*
X3215000Y-1435000D02*
X3185000Y-1465000D01*
X3185000Y-1685000D02*
X3215000Y-1715000D01*
X3215000Y-1685000D02*
X3185000Y-1715000D01*
X3185000Y-2185000D02*
X3215000Y-2215000D01*
X3215000Y-2185000D02*
X3185000Y-2215000D01*
X3185000Y-2685000D02*
X3215000Y-2715000D01*
X3215000Y-2685000D02*
X3185000Y-2715000D01*
X3185000Y-2935000D02*
X3215000Y-2965000D01*
X3215000Y-2935000D02*
X3185000Y-2965000D01*
X3185000Y-3435000D02*
X3215000Y-3465000D01*
X3215000Y-3435000D02*
X3185000Y-3465000D01*
X3435000Y-3435000D02*
X3465000Y-3465000D01*
X3465000Y-3435000D02*
X3435000Y-3465000D01*
X3498000Y-1747000D02*
X3528000Y-1777000D01*
X3528000Y-1747000D02*
X3498000Y-1777000D01*
X3651000Y-2157000D02*
X3681000Y-2187000D01*
X3681000Y-2157000D02*
X3651000Y-2187000D01*
X3685000Y-2685000D02*
X3715000Y-2715000D01*
X3715000Y-2685000D02*
X3685000Y-2715000D01*
X3685000Y-3435000D02*
X3715000Y-3465000D01*
X3715000Y-3435000D02*
X3685000Y-3465000D01*
X3935000Y-2685000D02*
X3965000Y-2715000D01*
X3965000Y-2685000D02*
X3935000Y-2715000D01*
X3935000Y-2935000D02*
X3965000Y-2965000D01*
X3965000Y-2935000D02*
X3935000Y-2965000D01*
X4185000Y-3185000D02*
X4215000Y-3215000D01*
X4215000Y-3185000D02*
X4185000Y-3215000D01*
X4185000Y-3435000D02*
X4215000Y-3465000D01*
X4215000Y-3435000D02*
X4185000Y-3465000D01*
X4435000Y-3185000D02*
X4465000Y-3215000D01*
X4465000Y-3185000D02*
X4435000Y-3215000D01*
X4435000Y-3435000D02*
X4465000Y-3465000D01*
X4465000Y-3435000D02*
X4435000Y-3465000D01*
X4685000Y-3185000D02*
X4715000Y-3215000D01*
X4715000Y-3185000D02*
X4685000Y-3215000D01*
X4685000Y-3435000D02*
X4715000Y-3465000D01*
X4715000Y-3435000D02*
X4685000Y-3465000D01*
X4935000Y-2435000D02*
X4965000Y-2465000D01*
X4965000Y-2435000D02*
X4935000Y-2465000D01*
X5185000Y-2185000D02*
X5215000Y-2215000D01*
X5215000Y-2185000D02*
X5185000Y-2215000D01*
X5185000Y-2435000D02*
X5215000Y-2465000D01*
X5215000Y-2435000D02*
X5185000Y-2465000D01*
X5185000Y-2685000D02*
X5215000Y-2715000D01*
X5215000Y-2685000D02*
X5185000Y-2715000D01*
X5185000Y-2935000D02*
X5215000Y-2965000D01*
X5215000Y-2935000D02*
X5185000Y-2965000D01*
X5435000Y-2185000D02*
X5465000Y-2215000D01*
X5465000Y-2185000D02*
X5435000Y-2215000D01*
X5435000Y-2685000D02*
X5465000Y-2715000D01*
X5465000Y-2685000D02*
X5435000Y-2715000D01*
X5435000Y-2935000D02*
X5465000Y-2965000D01*
X5465000Y-2935000D02*
X5435000Y-2965000D01*
X5435000Y-3185000D02*
X5465000Y-3215000D01*
X5465000Y-3185000D02*
X5435000Y-3215000D01*
X5435000Y-3435000D02*
X5465000Y-3465000D01*
X5465000Y-3435000D02*
X5435000Y-3465000D01*
X5685000Y-1685000D02*
X5715000Y-1715000D01*
X5715000Y-1685000D02*
X5685000Y-1715000D01*
X5685000Y-1935000D02*
X5715000Y-1965000D01*
X5715000Y-1935000D02*
X5685000Y-1965000D01*
X5685000Y-2935000D02*
X5715000Y-2965000D01*
X5715000Y-2935000D02*
X5685000Y-2965000D01*
X5685000Y-3185000D02*
X5715000Y-3215000D01*
X5715000Y-3185000D02*
X5685000Y-3215000D01*
X5685000Y-3435000D02*
X5715000Y-3465000D01*
X5715000Y-3435000D02*
X5685000Y-3465000D01*
X5935000Y-1435000D02*
X5965000Y-1465000D01*
X5965000Y-1435000D02*
X5935000Y-1465000D01*
X5935000Y-2935000D02*
X5965000Y-2965000D01*
X5965000Y-2935000D02*
X5935000Y-2965000D01*
X5935000Y-3185000D02*
X5965000Y-3215000D01*
X5965000Y-3185000D02*
X5935000Y-3215000D01*
X5935000Y-3435000D02*
X5965000Y-3465000D01*
X5965000Y-3435000D02*
X5935000Y-3465000D01*
X5961000Y-1869000D02*
X5991000Y-1899000D01*
X5991000Y-1869000D02*
X5961000Y-1899000D01*
X5967000Y-2323000D02*
X5997000Y-2353000D01*
X5997000Y-2323000D02*
X5967000Y-2353000D01*
X6185000Y-1435000D02*
X6215000Y-1465000D01*
X6215000Y-1435000D02*
X6185000Y-1465000D01*
X6185000Y-1685000D02*
X6215000Y-1715000D01*
X6215000Y-1685000D02*
X6185000Y-1715000D01*
X6185000Y-1935000D02*
X6215000Y-1965000D01*
X6215000Y-1935000D02*
X6185000Y-1965000D01*
X6185000Y-2935000D02*
X6215000Y-2965000D01*
X6215000Y-2935000D02*
X6185000Y-2965000D01*
X6185000Y-3185000D02*
X6215000Y-3215000D01*
X6215000Y-3185000D02*
X6185000Y-3215000D01*
X6185000Y-3435000D02*
X6215000Y-3465000D01*
X6215000Y-3435000D02*
X6185000Y-3465000D01*
X6435000Y-1435000D02*
X6465000Y-1465000D01*
X6465000Y-1435000D02*
X6435000Y-1465000D01*
X6435000Y-1685000D02*
X6465000Y-1715000D01*
X6465000Y-1685000D02*
X6435000Y-1715000D01*
X6435000Y-1935000D02*
X6465000Y-1965000D01*
X6465000Y-1935000D02*
X6435000Y-1965000D01*
X6435000Y-2935000D02*
X6465000Y-2965000D01*
X6465000Y-2935000D02*
X6435000Y-2965000D01*
X6435000Y-3185000D02*
X6465000Y-3215000D01*
X6465000Y-3185000D02*
X6435000Y-3215000D01*
X6435000Y-3435000D02*
X6465000Y-3465000D01*
X6465000Y-3435000D02*
X6435000Y-3465000D01*
X6685000Y-1435000D02*
X6715000Y-1465000D01*
X6715000Y-1435000D02*
X6685000Y-1465000D01*
X6685000Y-1685000D02*
X6715000Y-1715000D01*
X6715000Y-1685000D02*
X6685000Y-1715000D01*
X6685000Y-1935000D02*
X6715000Y-1965000D01*
X6715000Y-1935000D02*
X6685000Y-1965000D01*
X6685000Y-2935000D02*
X6715000Y-2965000D01*
X6715000Y-2935000D02*
X6685000Y-2965000D01*
X6685000Y-3185000D02*
X6715000Y-3215000D01*
X6715000Y-3185000D02*
X6685000Y-3215000D01*
X6685000Y-3435000D02*
X6715000Y-3465000D01*
X6715000Y-3435000D02*
X6685000Y-3465000D01*
X6935000Y-1435000D02*
X6965000Y-1465000D01*
X6965000Y-1435000D02*
X6935000Y-1465000D01*
X6935000Y-1685000D02*
X6965000Y-1715000D01*
X6965000Y-1685000D02*
X6935000Y-1715000D01*
X6935000Y-1935000D02*
X6965000Y-1965000D01*
X6965000Y-1935000D02*
X6935000Y-1965000D01*
X6935000Y-2685000D02*
X6965000Y-2715000D01*
X6965000Y-2685000D02*
X6935000Y-2715000D01*
X6935000Y-2935000D02*
X6965000Y-2965000D01*
X6965000Y-2935000D02*
X6935000Y-2965000D01*
X6935000Y-3185000D02*
X6965000Y-3215000D01*
X6965000Y-3185000D02*
X6935000Y-3215000D01*
X6935000Y-3435000D02*
X6965000Y-3465000D01*
X6965000Y-3435000D02*
X6935000Y-3465000D01*
X7185000Y-1435000D02*
X7215000Y-1465000D01*
X7215000Y-1435000D02*
X7185000Y-1465000D01*
X7185000Y-1685000D02*
X7215000Y-1715000D01*
X7215000Y-1685000D02*
X7185000Y-1715000D01*
X7185000Y-1935000D02*
X7215000Y-1965000D01*
X7215000Y-1935000D02*
X7185000Y-1965000D01*
X7185000Y-2935000D02*
X7215000Y-2965000D01*
X7215000Y-2935000D02*
X7185000Y-2965000D01*
X7185000Y-3185000D02*
X7215000Y-3215000D01*
X7215000Y-3185000D02*
X7185000Y-3215000D01*
X7185000Y-3435000D02*
X7215000Y-3465000D01*
X7215000Y-3435000D02*
X7185000Y-3465000D01*
X7435000Y-1435000D02*
X7465000Y-1465000D01*
X7465000Y-1435000D02*
X7435000Y-1465000D01*
X7435000Y-1685000D02*
X7465000Y-1715000D01*
X7465000Y-1685000D02*
X7435000Y-1715000D01*
X7435000Y-1935000D02*
X7465000Y-1965000D01*
X7465000Y-1935000D02*
X7435000Y-1965000D01*
X7435000Y-2185000D02*
X7465000Y-2215000D01*
X7465000Y-2185000D02*
X7435000Y-2215000D01*
X7435000Y-2435000D02*
X7465000Y-2465000D01*
X7465000Y-2435000D02*
X7435000Y-2465000D01*
X7435000Y-2685000D02*
X7465000Y-2715000D01*
X7465000Y-2685000D02*
X7435000Y-2715000D01*
X7435000Y-2935000D02*
X7465000Y-2965000D01*
X7465000Y-2935000D02*
X7435000Y-2965000D01*
X7435000Y-3185000D02*
X7465000Y-3215000D01*
X7465000Y-3185000D02*
X7435000Y-3215000D01*
X7435000Y-3435000D02*
X7465000Y-3465000D01*
X7465000Y-3435000D02*
X7435000Y-3465000D01*
X7685000Y-1435000D02*
X7715000Y-1465000D01*
X7715000Y-1435000D02*
X7685000Y-1465000D01*
X7685000Y-1685000D02*
X7715000Y-1715000D01*
X7715000Y-1685000D02*
X7685000Y-1715000D01*
X7685000Y-1935000D02*
X7715000Y-1965000D01*
X7715000Y-1935000D02*
X7685000Y-1965000D01*
X7685000Y-2185000D02*
X7715000Y-2215000D01*
X7715000Y-2185000D02*
X7685000Y-2215000D01*
X7685000Y-2435000D02*
X7715000Y-2465000D01*
X7715000Y-2435000D02*
X7685000Y-2465000D01*
X7685000Y-2685000D02*
X7715000Y-2715000D01*
X7715000Y-2685000D02*
X7685000Y-2715000D01*
X7685000Y-2935000D02*
X7715000Y-2965000D01*
X7715000Y-2935000D02*
X7685000Y-2965000D01*
X7685000Y-3185000D02*
X7715000Y-3215000D01*
X7715000Y-3185000D02*
X7685000Y-3215000D01*
X7685000Y-3435000D02*
X7715000Y-3465000D01*
X7715000Y-3435000D02*
X7685000Y-3465000D01*
X1860000Y-2315263D02*
G75*
G02*
X1780000Y-2315263I-40000J0D01*
G01*
X1780000Y-2315263D02*
G75*
G02*
X1860000Y-2315263I40000J0D01*
G01*
X1860000Y-2569263D02*
G75*
G02*
X1780000Y-2569263I-40000J0D01*
G01*
X1780000Y-2569263D02*
G75*
G02*
X1860000Y-2569263I40000J0D01*
G01*
X2860000Y-2315263D02*
G75*
G02*
X2780000Y-2315263I-40000J0D01*
G01*
X2780000Y-2315263D02*
G75*
G02*
X2860000Y-2315263I40000J0D01*
G01*
X2860000Y-2569263D02*
G75*
G02*
X2780000Y-2569263I-40000J0D01*
G01*
X2780000Y-2569263D02*
G75*
G02*
X2860000Y-2569263I40000J0D01*
G01*
X6280661Y-2315263D02*
G75*
G02*
X6200661Y-2315263I-40000J0D01*
G01*
X6200661Y-2315263D02*
G75*
G02*
X6280661Y-2315263I40000J0D01*
G01*
X6280661Y-2569263D02*
G75*
G02*
X6200661Y-2569263I-40000J0D01*
G01*
X6200661Y-2569263D02*
G75*
G02*
X6280661Y-2569263I40000J0D01*
G01*
X7280661Y-2315263D02*
G75*
G02*
X7200661Y-2315263I-40000J0D01*
G01*
X7200661Y-2315263D02*
G75*
G02*
X7280661Y-2315263I40000J0D01*
G01*
X7280661Y-2569263D02*
G75*
G02*
X7200661Y-2569263I-40000J0D01*
G01*
X7200661Y-2569263D02*
G75*
G02*
X7280661Y-2569263I40000J0D01*
G01*
D11*
X1499698Y-3955405D02*
X1499698Y-3755405D01*
X1499698Y-3755405D02*
X1547317Y-3755405D01*
X1547317Y-3755405D02*
X1575889Y-3764929D01*
X1575889Y-3764929D02*
X1594936Y-3783977D01*
X1594936Y-3783977D02*
X1604460Y-3803024D01*
X1604460Y-3803024D02*
X1613984Y-3841119D01*
X1613984Y-3841119D02*
X1613984Y-3869691D01*
X1613984Y-3869691D02*
X1604460Y-3907786D01*
X1604460Y-3907786D02*
X1594936Y-3926834D01*
X1594936Y-3926834D02*
X1575889Y-3945881D01*
X1575889Y-3945881D02*
X1547317Y-3955405D01*
X1547317Y-3955405D02*
X1499698Y-3955405D01*
X1699698Y-3955405D02*
X1699698Y-3822072D01*
X1699698Y-3860167D02*
X1709222Y-3841119D01*
X1709222Y-3841119D02*
X1718746Y-3831596D01*
X1718746Y-3831596D02*
X1737793Y-3822072D01*
X1737793Y-3822072D02*
X1756841Y-3822072D01*
X1823508Y-3955405D02*
X1823508Y-3822072D01*
X1823508Y-3755405D02*
X1813984Y-3764929D01*
X1813984Y-3764929D02*
X1823508Y-3774453D01*
X1823508Y-3774453D02*
X1833031Y-3764929D01*
X1833031Y-3764929D02*
X1823508Y-3755405D01*
X1823508Y-3755405D02*
X1823508Y-3774453D01*
X1947317Y-3955405D02*
X1928270Y-3945881D01*
X1928270Y-3945881D02*
X1918746Y-3926834D01*
X1918746Y-3926834D02*
X1918746Y-3755405D01*
X2052079Y-3955405D02*
X2033031Y-3945881D01*
X2033031Y-3945881D02*
X2023508Y-3926834D01*
X2023508Y-3926834D02*
X2023508Y-3755405D01*
X2280651Y-3955405D02*
X2280651Y-3755405D01*
X2280651Y-3755405D02*
X2347317Y-3898262D01*
X2347317Y-3898262D02*
X2413984Y-3755405D01*
X2413984Y-3755405D02*
X2413984Y-3955405D01*
X2594936Y-3955405D02*
X2594936Y-3850643D01*
X2594936Y-3850643D02*
X2585413Y-3831596D01*
X2585413Y-3831596D02*
X2566365Y-3822072D01*
X2566365Y-3822072D02*
X2528270Y-3822072D01*
X2528270Y-3822072D02*
X2509222Y-3831596D01*
X2594936Y-3945881D02*
X2575889Y-3955405D01*
X2575889Y-3955405D02*
X2528270Y-3955405D01*
X2528270Y-3955405D02*
X2509222Y-3945881D01*
X2509222Y-3945881D02*
X2499698Y-3926834D01*
X2499698Y-3926834D02*
X2499698Y-3907786D01*
X2499698Y-3907786D02*
X2509222Y-3888738D01*
X2509222Y-3888738D02*
X2528270Y-3879215D01*
X2528270Y-3879215D02*
X2575889Y-3879215D01*
X2575889Y-3879215D02*
X2594936Y-3869691D01*
X2690174Y-3822072D02*
X2690174Y-4022072D01*
X2690174Y-3831596D02*
X2709222Y-3822072D01*
X2709222Y-3822072D02*
X2747317Y-3822072D01*
X2747317Y-3822072D02*
X2766365Y-3831596D01*
X2766365Y-3831596D02*
X2775889Y-3841119D01*
X2775889Y-3841119D02*
X2785413Y-3860167D01*
X2785413Y-3860167D02*
X2785413Y-3917310D01*
X2785413Y-3917310D02*
X2775889Y-3936357D01*
X2775889Y-3936357D02*
X2766365Y-3945881D01*
X2766365Y-3945881D02*
X2747317Y-3955405D01*
X2747317Y-3955405D02*
X2709222Y-3955405D01*
X2709222Y-3955405D02*
X2690174Y-3945881D01*
X2871127Y-3936357D02*
X2880651Y-3945881D01*
X2880651Y-3945881D02*
X2871127Y-3955405D01*
X2871127Y-3955405D02*
X2861603Y-3945881D01*
X2861603Y-3945881D02*
X2871127Y-3936357D01*
X2871127Y-3936357D02*
X2871127Y-3955405D01*
X2871127Y-3831596D02*
X2880651Y-3841119D01*
X2880651Y-3841119D02*
X2871127Y-3850643D01*
X2871127Y-3850643D02*
X2861603Y-3841119D01*
X2861603Y-3841119D02*
X2871127Y-3831596D01*
X2871127Y-3831596D02*
X2871127Y-3850643D01*
D12*
X1208921Y-4268921D02*
X1238921Y-4298921D01*
X1238921Y-4268921D02*
X1208921Y-4298921D01*
D11*
X1537793Y-4175405D02*
X1556841Y-4175405D01*
X1556841Y-4175405D02*
X1575889Y-4184929D01*
X1575889Y-4184929D02*
X1585412Y-4194453D01*
X1585412Y-4194453D02*
X1594936Y-4213500D01*
X1594936Y-4213500D02*
X1604460Y-4251596D01*
X1604460Y-4251596D02*
X1604460Y-4299215D01*
X1604460Y-4299215D02*
X1594936Y-4337310D01*
X1594936Y-4337310D02*
X1585412Y-4356358D01*
X1585412Y-4356358D02*
X1575889Y-4365881D01*
X1575889Y-4365881D02*
X1556841Y-4375405D01*
X1556841Y-4375405D02*
X1537793Y-4375405D01*
X1537793Y-4375405D02*
X1518746Y-4365881D01*
X1518746Y-4365881D02*
X1509222Y-4356358D01*
X1509222Y-4356358D02*
X1499698Y-4337310D01*
X1499698Y-4337310D02*
X1490174Y-4299215D01*
X1490174Y-4299215D02*
X1490174Y-4251596D01*
X1490174Y-4251596D02*
X1499698Y-4213500D01*
X1499698Y-4213500D02*
X1509222Y-4194453D01*
X1509222Y-4194453D02*
X1518746Y-4184929D01*
X1518746Y-4184929D02*
X1537793Y-4175405D01*
X1690174Y-4356358D02*
X1699698Y-4365881D01*
X1699698Y-4365881D02*
X1690174Y-4375405D01*
X1690174Y-4375405D02*
X1680651Y-4365881D01*
X1680651Y-4365881D02*
X1690174Y-4356358D01*
X1690174Y-4356358D02*
X1690174Y-4375405D01*
X1766365Y-4175405D02*
X1890174Y-4175405D01*
X1890174Y-4175405D02*
X1823508Y-4251596D01*
X1823508Y-4251596D02*
X1852079Y-4251596D01*
X1852079Y-4251596D02*
X1871127Y-4261119D01*
X1871127Y-4261119D02*
X1880651Y-4270643D01*
X1880651Y-4270643D02*
X1890174Y-4289691D01*
X1890174Y-4289691D02*
X1890174Y-4337310D01*
X1890174Y-4337310D02*
X1880651Y-4356358D01*
X1880651Y-4356358D02*
X1871127Y-4365881D01*
X1871127Y-4365881D02*
X1852079Y-4375405D01*
X1852079Y-4375405D02*
X1794936Y-4375405D01*
X1794936Y-4375405D02*
X1775889Y-4365881D01*
X1775889Y-4365881D02*
X1766365Y-4356358D01*
X2013984Y-4175405D02*
X2033032Y-4175405D01*
X2033032Y-4175405D02*
X2052079Y-4184929D01*
X2052079Y-4184929D02*
X2061603Y-4194453D01*
X2061603Y-4194453D02*
X2071127Y-4213500D01*
X2071127Y-4213500D02*
X2080651Y-4251596D01*
X2080651Y-4251596D02*
X2080651Y-4299215D01*
X2080651Y-4299215D02*
X2071127Y-4337310D01*
X2071127Y-4337310D02*
X2061603Y-4356358D01*
X2061603Y-4356358D02*
X2052079Y-4365881D01*
X2052079Y-4365881D02*
X2033032Y-4375405D01*
X2033032Y-4375405D02*
X2013984Y-4375405D01*
X2013984Y-4375405D02*
X1994936Y-4365881D01*
X1994936Y-4365881D02*
X1985412Y-4356358D01*
X1985412Y-4356358D02*
X1975889Y-4337310D01*
X1975889Y-4337310D02*
X1966365Y-4299215D01*
X1966365Y-4299215D02*
X1966365Y-4251596D01*
X1966365Y-4251596D02*
X1975889Y-4213500D01*
X1975889Y-4213500D02*
X1985412Y-4194453D01*
X1985412Y-4194453D02*
X1994936Y-4184929D01*
X1994936Y-4184929D02*
X2013984Y-4175405D01*
X2204460Y-4175405D02*
X2223508Y-4175405D01*
X2223508Y-4175405D02*
X2242555Y-4184929D01*
X2242555Y-4184929D02*
X2252079Y-4194453D01*
X2252079Y-4194453D02*
X2261603Y-4213500D01*
X2261603Y-4213500D02*
X2271127Y-4251596D01*
X2271127Y-4251596D02*
X2271127Y-4299215D01*
X2271127Y-4299215D02*
X2261603Y-4337310D01*
X2261603Y-4337310D02*
X2252079Y-4356358D01*
X2252079Y-4356358D02*
X2242555Y-4365881D01*
X2242555Y-4365881D02*
X2223508Y-4375405D01*
X2223508Y-4375405D02*
X2204460Y-4375405D01*
X2204460Y-4375405D02*
X2185413Y-4365881D01*
X2185413Y-4365881D02*
X2175889Y-4356358D01*
X2175889Y-4356358D02*
X2166365Y-4337310D01*
X2166365Y-4337310D02*
X2156841Y-4299215D01*
X2156841Y-4299215D02*
X2156841Y-4251596D01*
X2156841Y-4251596D02*
X2166365Y-4213500D01*
X2166365Y-4213500D02*
X2175889Y-4194453D01*
X2175889Y-4194453D02*
X2185413Y-4184929D01*
X2185413Y-4184929D02*
X2204460Y-4175405D01*
X2356841Y-4375405D02*
X2356841Y-4242072D01*
X2356841Y-4261119D02*
X2366365Y-4251596D01*
X2366365Y-4251596D02*
X2385413Y-4242072D01*
X2385413Y-4242072D02*
X2413984Y-4242072D01*
X2413984Y-4242072D02*
X2433032Y-4251596D01*
X2433032Y-4251596D02*
X2442555Y-4270643D01*
X2442555Y-4270643D02*
X2442555Y-4375405D01*
X2442555Y-4270643D02*
X2452079Y-4251596D01*
X2452079Y-4251596D02*
X2471127Y-4242072D01*
X2471127Y-4242072D02*
X2499698Y-4242072D01*
X2499698Y-4242072D02*
X2518746Y-4251596D01*
X2518746Y-4251596D02*
X2528270Y-4270643D01*
X2528270Y-4270643D02*
X2528270Y-4375405D01*
X2623508Y-4375405D02*
X2623508Y-4242072D01*
X2623508Y-4261119D02*
X2633032Y-4251596D01*
X2633032Y-4251596D02*
X2652079Y-4242072D01*
X2652079Y-4242072D02*
X2680651Y-4242072D01*
X2680651Y-4242072D02*
X2699698Y-4251596D01*
X2699698Y-4251596D02*
X2709222Y-4270643D01*
X2709222Y-4270643D02*
X2709222Y-4375405D01*
X2709222Y-4270643D02*
X2718746Y-4251596D01*
X2718746Y-4251596D02*
X2737794Y-4242072D01*
X2737794Y-4242072D02*
X2766365Y-4242072D01*
X2766365Y-4242072D02*
X2785413Y-4251596D01*
X2785413Y-4251596D02*
X2794936Y-4270643D01*
X2794936Y-4270643D02*
X2794936Y-4375405D01*
X3185413Y-4165881D02*
X3013984Y-4423024D01*
X3442555Y-4175405D02*
X3461603Y-4175405D01*
X3461603Y-4175405D02*
X3480651Y-4184929D01*
X3480651Y-4184929D02*
X3490175Y-4194453D01*
X3490175Y-4194453D02*
X3499698Y-4213500D01*
X3499698Y-4213500D02*
X3509222Y-4251596D01*
X3509222Y-4251596D02*
X3509222Y-4299215D01*
X3509222Y-4299215D02*
X3499698Y-4337310D01*
X3499698Y-4337310D02*
X3490175Y-4356358D01*
X3490175Y-4356358D02*
X3480651Y-4365881D01*
X3480651Y-4365881D02*
X3461603Y-4375405D01*
X3461603Y-4375405D02*
X3442555Y-4375405D01*
X3442555Y-4375405D02*
X3423508Y-4365881D01*
X3423508Y-4365881D02*
X3413984Y-4356358D01*
X3413984Y-4356358D02*
X3404460Y-4337310D01*
X3404460Y-4337310D02*
X3394936Y-4299215D01*
X3394936Y-4299215D02*
X3394936Y-4251596D01*
X3394936Y-4251596D02*
X3404460Y-4213500D01*
X3404460Y-4213500D02*
X3413984Y-4194453D01*
X3413984Y-4194453D02*
X3423508Y-4184929D01*
X3423508Y-4184929D02*
X3442555Y-4175405D01*
X3594936Y-4356358D02*
X3604460Y-4365881D01*
X3604460Y-4365881D02*
X3594936Y-4375405D01*
X3594936Y-4375405D02*
X3585413Y-4365881D01*
X3585413Y-4365881D02*
X3594936Y-4356358D01*
X3594936Y-4356358D02*
X3594936Y-4375405D01*
X3728270Y-4175405D02*
X3747317Y-4175405D01*
X3747317Y-4175405D02*
X3766365Y-4184929D01*
X3766365Y-4184929D02*
X3775889Y-4194453D01*
X3775889Y-4194453D02*
X3785413Y-4213500D01*
X3785413Y-4213500D02*
X3794936Y-4251596D01*
X3794936Y-4251596D02*
X3794936Y-4299215D01*
X3794936Y-4299215D02*
X3785413Y-4337310D01*
X3785413Y-4337310D02*
X3775889Y-4356358D01*
X3775889Y-4356358D02*
X3766365Y-4365881D01*
X3766365Y-4365881D02*
X3747317Y-4375405D01*
X3747317Y-4375405D02*
X3728270Y-4375405D01*
X3728270Y-4375405D02*
X3709222Y-4365881D01*
X3709222Y-4365881D02*
X3699698Y-4356358D01*
X3699698Y-4356358D02*
X3690175Y-4337310D01*
X3690175Y-4337310D02*
X3680651Y-4299215D01*
X3680651Y-4299215D02*
X3680651Y-4251596D01*
X3680651Y-4251596D02*
X3690175Y-4213500D01*
X3690175Y-4213500D02*
X3699698Y-4194453D01*
X3699698Y-4194453D02*
X3709222Y-4184929D01*
X3709222Y-4184929D02*
X3728270Y-4175405D01*
X3985413Y-4375405D02*
X3871127Y-4375405D01*
X3928270Y-4375405D02*
X3928270Y-4175405D01*
X3928270Y-4175405D02*
X3909222Y-4203977D01*
X3909222Y-4203977D02*
X3890175Y-4223024D01*
X3890175Y-4223024D02*
X3871127Y-4232548D01*
X4175889Y-4375405D02*
X4061603Y-4375405D01*
X4118746Y-4375405D02*
X4118746Y-4175405D01*
X4118746Y-4175405D02*
X4099698Y-4203977D01*
X4099698Y-4203977D02*
X4080651Y-4223024D01*
X4080651Y-4223024D02*
X4061603Y-4232548D01*
X4290175Y-4261119D02*
X4271127Y-4251596D01*
X4271127Y-4251596D02*
X4261603Y-4242072D01*
X4261603Y-4242072D02*
X4252079Y-4223024D01*
X4252079Y-4223024D02*
X4252079Y-4213500D01*
X4252079Y-4213500D02*
X4261603Y-4194453D01*
X4261603Y-4194453D02*
X4271127Y-4184929D01*
X4271127Y-4184929D02*
X4290175Y-4175405D01*
X4290175Y-4175405D02*
X4328270Y-4175405D01*
X4328270Y-4175405D02*
X4347318Y-4184929D01*
X4347318Y-4184929D02*
X4356841Y-4194453D01*
X4356841Y-4194453D02*
X4366365Y-4213500D01*
X4366365Y-4213500D02*
X4366365Y-4223024D01*
X4366365Y-4223024D02*
X4356841Y-4242072D01*
X4356841Y-4242072D02*
X4347318Y-4251596D01*
X4347318Y-4251596D02*
X4328270Y-4261119D01*
X4328270Y-4261119D02*
X4290175Y-4261119D01*
X4290175Y-4261119D02*
X4271127Y-4270643D01*
X4271127Y-4270643D02*
X4261603Y-4280167D01*
X4261603Y-4280167D02*
X4252079Y-4299215D01*
X4252079Y-4299215D02*
X4252079Y-4337310D01*
X4252079Y-4337310D02*
X4261603Y-4356358D01*
X4261603Y-4356358D02*
X4271127Y-4365881D01*
X4271127Y-4365881D02*
X4290175Y-4375405D01*
X4290175Y-4375405D02*
X4328270Y-4375405D01*
X4328270Y-4375405D02*
X4347318Y-4365881D01*
X4347318Y-4365881D02*
X4356841Y-4356358D01*
X4356841Y-4356358D02*
X4366365Y-4337310D01*
X4366365Y-4337310D02*
X4366365Y-4299215D01*
X4366365Y-4299215D02*
X4356841Y-4280167D01*
X4356841Y-4280167D02*
X4347318Y-4270643D01*
X4347318Y-4270643D02*
X4328270Y-4261119D01*
X4442556Y-4175405D02*
X4442556Y-4213500D01*
X4518746Y-4175405D02*
X4518746Y-4213500D01*
X4813984Y-4451596D02*
X4804460Y-4442072D01*
X4804460Y-4442072D02*
X4785413Y-4413500D01*
X4785413Y-4413500D02*
X4775889Y-4394453D01*
X4775889Y-4394453D02*
X4766365Y-4365881D01*
X4766365Y-4365881D02*
X4756841Y-4318262D01*
X4756841Y-4318262D02*
X4756841Y-4280167D01*
X4756841Y-4280167D02*
X4766365Y-4232548D01*
X4766365Y-4232548D02*
X4775889Y-4203977D01*
X4775889Y-4203977D02*
X4785413Y-4184929D01*
X4785413Y-4184929D02*
X4804460Y-4156357D01*
X4804460Y-4156357D02*
X4813984Y-4146834D01*
X4994937Y-4375405D02*
X4880651Y-4375405D01*
X4937794Y-4375405D02*
X4937794Y-4175405D01*
X4937794Y-4175405D02*
X4918746Y-4203977D01*
X4918746Y-4203977D02*
X4899699Y-4223024D01*
X4899699Y-4223024D02*
X4880651Y-4232548D01*
X5061603Y-4175405D02*
X5185413Y-4175405D01*
X5185413Y-4175405D02*
X5118746Y-4251596D01*
X5118746Y-4251596D02*
X5147318Y-4251596D01*
X5147318Y-4251596D02*
X5166365Y-4261119D01*
X5166365Y-4261119D02*
X5175889Y-4270643D01*
X5175889Y-4270643D02*
X5185413Y-4289691D01*
X5185413Y-4289691D02*
X5185413Y-4337310D01*
X5185413Y-4337310D02*
X5175889Y-4356358D01*
X5175889Y-4356358D02*
X5166365Y-4365881D01*
X5166365Y-4365881D02*
X5147318Y-4375405D01*
X5147318Y-4375405D02*
X5090175Y-4375405D01*
X5090175Y-4375405D02*
X5071127Y-4365881D01*
X5071127Y-4365881D02*
X5061603Y-4356358D01*
X5375889Y-4375405D02*
X5261603Y-4375405D01*
X5318746Y-4375405D02*
X5318746Y-4175405D01*
X5318746Y-4175405D02*
X5299699Y-4203977D01*
X5299699Y-4203977D02*
X5280651Y-4223024D01*
X5280651Y-4223024D02*
X5261603Y-4232548D01*
X5613984Y-4375405D02*
X5613984Y-4175405D01*
X5699699Y-4375405D02*
X5699699Y-4270643D01*
X5699699Y-4270643D02*
X5690175Y-4251596D01*
X5690175Y-4251596D02*
X5671127Y-4242072D01*
X5671127Y-4242072D02*
X5642556Y-4242072D01*
X5642556Y-4242072D02*
X5623508Y-4251596D01*
X5623508Y-4251596D02*
X5613984Y-4261119D01*
X5823508Y-4375405D02*
X5804460Y-4365881D01*
X5804460Y-4365881D02*
X5794937Y-4356358D01*
X5794937Y-4356358D02*
X5785413Y-4337310D01*
X5785413Y-4337310D02*
X5785413Y-4280167D01*
X5785413Y-4280167D02*
X5794937Y-4261119D01*
X5794937Y-4261119D02*
X5804460Y-4251596D01*
X5804460Y-4251596D02*
X5823508Y-4242072D01*
X5823508Y-4242072D02*
X5852080Y-4242072D01*
X5852080Y-4242072D02*
X5871127Y-4251596D01*
X5871127Y-4251596D02*
X5880651Y-4261119D01*
X5880651Y-4261119D02*
X5890175Y-4280167D01*
X5890175Y-4280167D02*
X5890175Y-4337310D01*
X5890175Y-4337310D02*
X5880651Y-4356358D01*
X5880651Y-4356358D02*
X5871127Y-4365881D01*
X5871127Y-4365881D02*
X5852080Y-4375405D01*
X5852080Y-4375405D02*
X5823508Y-4375405D01*
X6004460Y-4375405D02*
X5985413Y-4365881D01*
X5985413Y-4365881D02*
X5975889Y-4346834D01*
X5975889Y-4346834D02*
X5975889Y-4175405D01*
X6156841Y-4365881D02*
X6137794Y-4375405D01*
X6137794Y-4375405D02*
X6099699Y-4375405D01*
X6099699Y-4375405D02*
X6080651Y-4365881D01*
X6080651Y-4365881D02*
X6071127Y-4346834D01*
X6071127Y-4346834D02*
X6071127Y-4270643D01*
X6071127Y-4270643D02*
X6080651Y-4251596D01*
X6080651Y-4251596D02*
X6099699Y-4242072D01*
X6099699Y-4242072D02*
X6137794Y-4242072D01*
X6137794Y-4242072D02*
X6156841Y-4251596D01*
X6156841Y-4251596D02*
X6166365Y-4270643D01*
X6166365Y-4270643D02*
X6166365Y-4289691D01*
X6166365Y-4289691D02*
X6071127Y-4308739D01*
X6242556Y-4365881D02*
X6261603Y-4375405D01*
X6261603Y-4375405D02*
X6299699Y-4375405D01*
X6299699Y-4375405D02*
X6318746Y-4365881D01*
X6318746Y-4365881D02*
X6328270Y-4346834D01*
X6328270Y-4346834D02*
X6328270Y-4337310D01*
X6328270Y-4337310D02*
X6318746Y-4318262D01*
X6318746Y-4318262D02*
X6299699Y-4308739D01*
X6299699Y-4308739D02*
X6271127Y-4308739D01*
X6271127Y-4308739D02*
X6252080Y-4299215D01*
X6252080Y-4299215D02*
X6242556Y-4280167D01*
X6242556Y-4280167D02*
X6242556Y-4270643D01*
X6242556Y-4270643D02*
X6252080Y-4251596D01*
X6252080Y-4251596D02*
X6271127Y-4242072D01*
X6271127Y-4242072D02*
X6299699Y-4242072D01*
X6299699Y-4242072D02*
X6318746Y-4251596D01*
X6394937Y-4451596D02*
X6404461Y-4442072D01*
X6404461Y-4442072D02*
X6423508Y-4413500D01*
X6423508Y-4413500D02*
X6433032Y-4394453D01*
X6433032Y-4394453D02*
X6442556Y-4365881D01*
X6442556Y-4365881D02*
X6452080Y-4318262D01*
X6452080Y-4318262D02*
X6452080Y-4280167D01*
X6452080Y-4280167D02*
X6442556Y-4232548D01*
X6442556Y-4232548D02*
X6433032Y-4203977D01*
X6433032Y-4203977D02*
X6423508Y-4184929D01*
X6423508Y-4184929D02*
X6404461Y-4156357D01*
X6404461Y-4156357D02*
X6394937Y-4146834D01*
D12*
X1238921Y-4547921D02*
G75*
G02*
X1158921Y-4547921I-40000J0D01*
G01*
X1158921Y-4547921D02*
G75*
G02*
X1238921Y-4547921I40000J0D01*
G01*
D11*
X1537793Y-4439405D02*
X1556841Y-4439405D01*
X1556841Y-4439405D02*
X1575889Y-4448929D01*
X1575889Y-4448929D02*
X1585412Y-4458453D01*
X1585412Y-4458453D02*
X1594936Y-4477500D01*
X1594936Y-4477500D02*
X1604460Y-4515596D01*
X1604460Y-4515596D02*
X1604460Y-4563215D01*
X1604460Y-4563215D02*
X1594936Y-4601310D01*
X1594936Y-4601310D02*
X1585412Y-4620358D01*
X1585412Y-4620358D02*
X1575889Y-4629881D01*
X1575889Y-4629881D02*
X1556841Y-4639405D01*
X1556841Y-4639405D02*
X1537793Y-4639405D01*
X1537793Y-4639405D02*
X1518746Y-4629881D01*
X1518746Y-4629881D02*
X1509222Y-4620358D01*
X1509222Y-4620358D02*
X1499698Y-4601310D01*
X1499698Y-4601310D02*
X1490174Y-4563215D01*
X1490174Y-4563215D02*
X1490174Y-4515596D01*
X1490174Y-4515596D02*
X1499698Y-4477500D01*
X1499698Y-4477500D02*
X1509222Y-4458453D01*
X1509222Y-4458453D02*
X1518746Y-4448929D01*
X1518746Y-4448929D02*
X1537793Y-4439405D01*
X1690174Y-4620358D02*
X1699698Y-4629881D01*
X1699698Y-4629881D02*
X1690174Y-4639405D01*
X1690174Y-4639405D02*
X1680651Y-4629881D01*
X1680651Y-4629881D02*
X1690174Y-4620358D01*
X1690174Y-4620358D02*
X1690174Y-4639405D01*
X1813984Y-4525119D02*
X1794936Y-4515596D01*
X1794936Y-4515596D02*
X1785412Y-4506072D01*
X1785412Y-4506072D02*
X1775889Y-4487024D01*
X1775889Y-4487024D02*
X1775889Y-4477500D01*
X1775889Y-4477500D02*
X1785412Y-4458453D01*
X1785412Y-4458453D02*
X1794936Y-4448929D01*
X1794936Y-4448929D02*
X1813984Y-4439405D01*
X1813984Y-4439405D02*
X1852079Y-4439405D01*
X1852079Y-4439405D02*
X1871127Y-4448929D01*
X1871127Y-4448929D02*
X1880651Y-4458453D01*
X1880651Y-4458453D02*
X1890174Y-4477500D01*
X1890174Y-4477500D02*
X1890174Y-4487024D01*
X1890174Y-4487024D02*
X1880651Y-4506072D01*
X1880651Y-4506072D02*
X1871127Y-4515596D01*
X1871127Y-4515596D02*
X1852079Y-4525119D01*
X1852079Y-4525119D02*
X1813984Y-4525119D01*
X1813984Y-4525119D02*
X1794936Y-4534643D01*
X1794936Y-4534643D02*
X1785412Y-4544167D01*
X1785412Y-4544167D02*
X1775889Y-4563215D01*
X1775889Y-4563215D02*
X1775889Y-4601310D01*
X1775889Y-4601310D02*
X1785412Y-4620358D01*
X1785412Y-4620358D02*
X1794936Y-4629881D01*
X1794936Y-4629881D02*
X1813984Y-4639405D01*
X1813984Y-4639405D02*
X1852079Y-4639405D01*
X1852079Y-4639405D02*
X1871127Y-4629881D01*
X1871127Y-4629881D02*
X1880651Y-4620358D01*
X1880651Y-4620358D02*
X1890174Y-4601310D01*
X1890174Y-4601310D02*
X1890174Y-4563215D01*
X1890174Y-4563215D02*
X1880651Y-4544167D01*
X1880651Y-4544167D02*
X1871127Y-4534643D01*
X1871127Y-4534643D02*
X1852079Y-4525119D01*
X2013984Y-4439405D02*
X2033032Y-4439405D01*
X2033032Y-4439405D02*
X2052079Y-4448929D01*
X2052079Y-4448929D02*
X2061603Y-4458453D01*
X2061603Y-4458453D02*
X2071127Y-4477500D01*
X2071127Y-4477500D02*
X2080651Y-4515596D01*
X2080651Y-4515596D02*
X2080651Y-4563215D01*
X2080651Y-4563215D02*
X2071127Y-4601310D01*
X2071127Y-4601310D02*
X2061603Y-4620358D01*
X2061603Y-4620358D02*
X2052079Y-4629881D01*
X2052079Y-4629881D02*
X2033032Y-4639405D01*
X2033032Y-4639405D02*
X2013984Y-4639405D01*
X2013984Y-4639405D02*
X1994936Y-4629881D01*
X1994936Y-4629881D02*
X1985412Y-4620358D01*
X1985412Y-4620358D02*
X1975889Y-4601310D01*
X1975889Y-4601310D02*
X1966365Y-4563215D01*
X1966365Y-4563215D02*
X1966365Y-4515596D01*
X1966365Y-4515596D02*
X1975889Y-4477500D01*
X1975889Y-4477500D02*
X1985412Y-4458453D01*
X1985412Y-4458453D02*
X1994936Y-4448929D01*
X1994936Y-4448929D02*
X2013984Y-4439405D01*
X2204460Y-4439405D02*
X2223508Y-4439405D01*
X2223508Y-4439405D02*
X2242555Y-4448929D01*
X2242555Y-4448929D02*
X2252079Y-4458453D01*
X2252079Y-4458453D02*
X2261603Y-4477500D01*
X2261603Y-4477500D02*
X2271127Y-4515596D01*
X2271127Y-4515596D02*
X2271127Y-4563215D01*
X2271127Y-4563215D02*
X2261603Y-4601310D01*
X2261603Y-4601310D02*
X2252079Y-4620358D01*
X2252079Y-4620358D02*
X2242555Y-4629881D01*
X2242555Y-4629881D02*
X2223508Y-4639405D01*
X2223508Y-4639405D02*
X2204460Y-4639405D01*
X2204460Y-4639405D02*
X2185413Y-4629881D01*
X2185413Y-4629881D02*
X2175889Y-4620358D01*
X2175889Y-4620358D02*
X2166365Y-4601310D01*
X2166365Y-4601310D02*
X2156841Y-4563215D01*
X2156841Y-4563215D02*
X2156841Y-4515596D01*
X2156841Y-4515596D02*
X2166365Y-4477500D01*
X2166365Y-4477500D02*
X2175889Y-4458453D01*
X2175889Y-4458453D02*
X2185413Y-4448929D01*
X2185413Y-4448929D02*
X2204460Y-4439405D01*
X2356841Y-4639405D02*
X2356841Y-4506072D01*
X2356841Y-4525119D02*
X2366365Y-4515596D01*
X2366365Y-4515596D02*
X2385413Y-4506072D01*
X2385413Y-4506072D02*
X2413984Y-4506072D01*
X2413984Y-4506072D02*
X2433032Y-4515596D01*
X2433032Y-4515596D02*
X2442555Y-4534643D01*
X2442555Y-4534643D02*
X2442555Y-4639405D01*
X2442555Y-4534643D02*
X2452079Y-4515596D01*
X2452079Y-4515596D02*
X2471127Y-4506072D01*
X2471127Y-4506072D02*
X2499698Y-4506072D01*
X2499698Y-4506072D02*
X2518746Y-4515596D01*
X2518746Y-4515596D02*
X2528270Y-4534643D01*
X2528270Y-4534643D02*
X2528270Y-4639405D01*
X2623508Y-4639405D02*
X2623508Y-4506072D01*
X2623508Y-4525119D02*
X2633032Y-4515596D01*
X2633032Y-4515596D02*
X2652079Y-4506072D01*
X2652079Y-4506072D02*
X2680651Y-4506072D01*
X2680651Y-4506072D02*
X2699698Y-4515596D01*
X2699698Y-4515596D02*
X2709222Y-4534643D01*
X2709222Y-4534643D02*
X2709222Y-4639405D01*
X2709222Y-4534643D02*
X2718746Y-4515596D01*
X2718746Y-4515596D02*
X2737794Y-4506072D01*
X2737794Y-4506072D02*
X2766365Y-4506072D01*
X2766365Y-4506072D02*
X2785413Y-4515596D01*
X2785413Y-4515596D02*
X2794936Y-4534643D01*
X2794936Y-4534643D02*
X2794936Y-4639405D01*
X3185413Y-4429881D02*
X3013984Y-4687024D01*
X3442555Y-4439405D02*
X3461603Y-4439405D01*
X3461603Y-4439405D02*
X3480651Y-4448929D01*
X3480651Y-4448929D02*
X3490175Y-4458453D01*
X3490175Y-4458453D02*
X3499698Y-4477500D01*
X3499698Y-4477500D02*
X3509222Y-4515596D01*
X3509222Y-4515596D02*
X3509222Y-4563215D01*
X3509222Y-4563215D02*
X3499698Y-4601310D01*
X3499698Y-4601310D02*
X3490175Y-4620358D01*
X3490175Y-4620358D02*
X3480651Y-4629881D01*
X3480651Y-4629881D02*
X3461603Y-4639405D01*
X3461603Y-4639405D02*
X3442555Y-4639405D01*
X3442555Y-4639405D02*
X3423508Y-4629881D01*
X3423508Y-4629881D02*
X3413984Y-4620358D01*
X3413984Y-4620358D02*
X3404460Y-4601310D01*
X3404460Y-4601310D02*
X3394936Y-4563215D01*
X3394936Y-4563215D02*
X3394936Y-4515596D01*
X3394936Y-4515596D02*
X3404460Y-4477500D01*
X3404460Y-4477500D02*
X3413984Y-4458453D01*
X3413984Y-4458453D02*
X3423508Y-4448929D01*
X3423508Y-4448929D02*
X3442555Y-4439405D01*
X3594936Y-4620358D02*
X3604460Y-4629881D01*
X3604460Y-4629881D02*
X3594936Y-4639405D01*
X3594936Y-4639405D02*
X3585413Y-4629881D01*
X3585413Y-4629881D02*
X3594936Y-4620358D01*
X3594936Y-4620358D02*
X3594936Y-4639405D01*
X3728270Y-4439405D02*
X3747317Y-4439405D01*
X3747317Y-4439405D02*
X3766365Y-4448929D01*
X3766365Y-4448929D02*
X3775889Y-4458453D01*
X3775889Y-4458453D02*
X3785413Y-4477500D01*
X3785413Y-4477500D02*
X3794936Y-4515596D01*
X3794936Y-4515596D02*
X3794936Y-4563215D01*
X3794936Y-4563215D02*
X3785413Y-4601310D01*
X3785413Y-4601310D02*
X3775889Y-4620358D01*
X3775889Y-4620358D02*
X3766365Y-4629881D01*
X3766365Y-4629881D02*
X3747317Y-4639405D01*
X3747317Y-4639405D02*
X3728270Y-4639405D01*
X3728270Y-4639405D02*
X3709222Y-4629881D01*
X3709222Y-4629881D02*
X3699698Y-4620358D01*
X3699698Y-4620358D02*
X3690175Y-4601310D01*
X3690175Y-4601310D02*
X3680651Y-4563215D01*
X3680651Y-4563215D02*
X3680651Y-4515596D01*
X3680651Y-4515596D02*
X3690175Y-4477500D01*
X3690175Y-4477500D02*
X3699698Y-4458453D01*
X3699698Y-4458453D02*
X3709222Y-4448929D01*
X3709222Y-4448929D02*
X3728270Y-4439405D01*
X3861603Y-4439405D02*
X3985413Y-4439405D01*
X3985413Y-4439405D02*
X3918746Y-4515596D01*
X3918746Y-4515596D02*
X3947317Y-4515596D01*
X3947317Y-4515596D02*
X3966365Y-4525119D01*
X3966365Y-4525119D02*
X3975889Y-4534643D01*
X3975889Y-4534643D02*
X3985413Y-4553691D01*
X3985413Y-4553691D02*
X3985413Y-4601310D01*
X3985413Y-4601310D02*
X3975889Y-4620358D01*
X3975889Y-4620358D02*
X3966365Y-4629881D01*
X3966365Y-4629881D02*
X3947317Y-4639405D01*
X3947317Y-4639405D02*
X3890175Y-4639405D01*
X3890175Y-4639405D02*
X3871127Y-4629881D01*
X3871127Y-4629881D02*
X3861603Y-4620358D01*
X4175889Y-4639405D02*
X4061603Y-4639405D01*
X4118746Y-4639405D02*
X4118746Y-4439405D01*
X4118746Y-4439405D02*
X4099698Y-4467977D01*
X4099698Y-4467977D02*
X4080651Y-4487024D01*
X4080651Y-4487024D02*
X4061603Y-4496548D01*
X4356841Y-4439405D02*
X4261603Y-4439405D01*
X4261603Y-4439405D02*
X4252079Y-4534643D01*
X4252079Y-4534643D02*
X4261603Y-4525119D01*
X4261603Y-4525119D02*
X4280651Y-4515596D01*
X4280651Y-4515596D02*
X4328270Y-4515596D01*
X4328270Y-4515596D02*
X4347318Y-4525119D01*
X4347318Y-4525119D02*
X4356841Y-4534643D01*
X4356841Y-4534643D02*
X4366365Y-4553691D01*
X4366365Y-4553691D02*
X4366365Y-4601310D01*
X4366365Y-4601310D02*
X4356841Y-4620358D01*
X4356841Y-4620358D02*
X4347318Y-4629881D01*
X4347318Y-4629881D02*
X4328270Y-4639405D01*
X4328270Y-4639405D02*
X4280651Y-4639405D01*
X4280651Y-4639405D02*
X4261603Y-4629881D01*
X4261603Y-4629881D02*
X4252079Y-4620358D01*
X4442556Y-4439405D02*
X4442556Y-4477500D01*
X4518746Y-4439405D02*
X4518746Y-4477500D01*
X4813984Y-4715596D02*
X4804460Y-4706072D01*
X4804460Y-4706072D02*
X4785413Y-4677500D01*
X4785413Y-4677500D02*
X4775889Y-4658453D01*
X4775889Y-4658453D02*
X4766365Y-4629881D01*
X4766365Y-4629881D02*
X4756841Y-4582262D01*
X4756841Y-4582262D02*
X4756841Y-4544167D01*
X4756841Y-4544167D02*
X4766365Y-4496548D01*
X4766365Y-4496548D02*
X4775889Y-4467977D01*
X4775889Y-4467977D02*
X4785413Y-4448929D01*
X4785413Y-4448929D02*
X4804460Y-4420358D01*
X4804460Y-4420358D02*
X4813984Y-4410834D01*
X4918746Y-4525119D02*
X4899699Y-4515596D01*
X4899699Y-4515596D02*
X4890175Y-4506072D01*
X4890175Y-4506072D02*
X4880651Y-4487024D01*
X4880651Y-4487024D02*
X4880651Y-4477500D01*
X4880651Y-4477500D02*
X4890175Y-4458453D01*
X4890175Y-4458453D02*
X4899699Y-4448929D01*
X4899699Y-4448929D02*
X4918746Y-4439405D01*
X4918746Y-4439405D02*
X4956841Y-4439405D01*
X4956841Y-4439405D02*
X4975889Y-4448929D01*
X4975889Y-4448929D02*
X4985413Y-4458453D01*
X4985413Y-4458453D02*
X4994937Y-4477500D01*
X4994937Y-4477500D02*
X4994937Y-4487024D01*
X4994937Y-4487024D02*
X4985413Y-4506072D01*
X4985413Y-4506072D02*
X4975889Y-4515596D01*
X4975889Y-4515596D02*
X4956841Y-4525119D01*
X4956841Y-4525119D02*
X4918746Y-4525119D01*
X4918746Y-4525119D02*
X4899699Y-4534643D01*
X4899699Y-4534643D02*
X4890175Y-4544167D01*
X4890175Y-4544167D02*
X4880651Y-4563215D01*
X4880651Y-4563215D02*
X4880651Y-4601310D01*
X4880651Y-4601310D02*
X4890175Y-4620358D01*
X4890175Y-4620358D02*
X4899699Y-4629881D01*
X4899699Y-4629881D02*
X4918746Y-4639405D01*
X4918746Y-4639405D02*
X4956841Y-4639405D01*
X4956841Y-4639405D02*
X4975889Y-4629881D01*
X4975889Y-4629881D02*
X4985413Y-4620358D01*
X4985413Y-4620358D02*
X4994937Y-4601310D01*
X4994937Y-4601310D02*
X4994937Y-4563215D01*
X4994937Y-4563215D02*
X4985413Y-4544167D01*
X4985413Y-4544167D02*
X4975889Y-4534643D01*
X4975889Y-4534643D02*
X4956841Y-4525119D01*
X5233032Y-4639405D02*
X5233032Y-4439405D01*
X5318746Y-4639405D02*
X5318746Y-4534643D01*
X5318746Y-4534643D02*
X5309222Y-4515596D01*
X5309222Y-4515596D02*
X5290175Y-4506072D01*
X5290175Y-4506072D02*
X5261603Y-4506072D01*
X5261603Y-4506072D02*
X5242556Y-4515596D01*
X5242556Y-4515596D02*
X5233032Y-4525119D01*
X5442556Y-4639405D02*
X5423508Y-4629881D01*
X5423508Y-4629881D02*
X5413984Y-4620358D01*
X5413984Y-4620358D02*
X5404461Y-4601310D01*
X5404461Y-4601310D02*
X5404461Y-4544167D01*
X5404461Y-4544167D02*
X5413984Y-4525119D01*
X5413984Y-4525119D02*
X5423508Y-4515596D01*
X5423508Y-4515596D02*
X5442556Y-4506072D01*
X5442556Y-4506072D02*
X5471127Y-4506072D01*
X5471127Y-4506072D02*
X5490175Y-4515596D01*
X5490175Y-4515596D02*
X5499699Y-4525119D01*
X5499699Y-4525119D02*
X5509222Y-4544167D01*
X5509222Y-4544167D02*
X5509222Y-4601310D01*
X5509222Y-4601310D02*
X5499699Y-4620358D01*
X5499699Y-4620358D02*
X5490175Y-4629881D01*
X5490175Y-4629881D02*
X5471127Y-4639405D01*
X5471127Y-4639405D02*
X5442556Y-4639405D01*
X5623508Y-4639405D02*
X5604460Y-4629881D01*
X5604460Y-4629881D02*
X5594937Y-4610834D01*
X5594937Y-4610834D02*
X5594937Y-4439405D01*
X5775889Y-4629881D02*
X5756841Y-4639405D01*
X5756841Y-4639405D02*
X5718746Y-4639405D01*
X5718746Y-4639405D02*
X5699699Y-4629881D01*
X5699699Y-4629881D02*
X5690175Y-4610834D01*
X5690175Y-4610834D02*
X5690175Y-4534643D01*
X5690175Y-4534643D02*
X5699699Y-4515596D01*
X5699699Y-4515596D02*
X5718746Y-4506072D01*
X5718746Y-4506072D02*
X5756841Y-4506072D01*
X5756841Y-4506072D02*
X5775889Y-4515596D01*
X5775889Y-4515596D02*
X5785413Y-4534643D01*
X5785413Y-4534643D02*
X5785413Y-4553691D01*
X5785413Y-4553691D02*
X5690175Y-4572739D01*
X5861603Y-4629881D02*
X5880651Y-4639405D01*
X5880651Y-4639405D02*
X5918746Y-4639405D01*
X5918746Y-4639405D02*
X5937794Y-4629881D01*
X5937794Y-4629881D02*
X5947318Y-4610834D01*
X5947318Y-4610834D02*
X5947318Y-4601310D01*
X5947318Y-4601310D02*
X5937794Y-4582262D01*
X5937794Y-4582262D02*
X5918746Y-4572739D01*
X5918746Y-4572739D02*
X5890175Y-4572739D01*
X5890175Y-4572739D02*
X5871127Y-4563215D01*
X5871127Y-4563215D02*
X5861603Y-4544167D01*
X5861603Y-4544167D02*
X5861603Y-4534643D01*
X5861603Y-4534643D02*
X5871127Y-4515596D01*
X5871127Y-4515596D02*
X5890175Y-4506072D01*
X5890175Y-4506072D02*
X5918746Y-4506072D01*
X5918746Y-4506072D02*
X5937794Y-4515596D01*
X6013984Y-4715596D02*
X6023508Y-4706072D01*
X6023508Y-4706072D02*
X6042556Y-4677500D01*
X6042556Y-4677500D02*
X6052080Y-4658453D01*
X6052080Y-4658453D02*
X6061603Y-4629881D01*
X6061603Y-4629881D02*
X6071127Y-4582262D01*
X6071127Y-4582262D02*
X6071127Y-4544167D01*
X6071127Y-4544167D02*
X6061603Y-4496548D01*
X6061603Y-4496548D02*
X6052080Y-4467977D01*
X6052080Y-4467977D02*
X6042556Y-4448929D01*
X6042556Y-4448929D02*
X6023508Y-4420358D01*
X6023508Y-4420358D02*
X6013984Y-4410834D01*
M02*
