G04 #@! TF.GenerationSoftware,KiCad,Pcbnew,8.0.6*
G04 #@! TF.CreationDate,2025-03-21T23:15:14+00:00*
G04 #@! TF.ProjectId,imu_rc_car_encoders,696d755f-7263-45f6-9361-725f656e636f,rev?*
G04 #@! TF.SameCoordinates,Original*
G04 #@! TF.FileFunction,Copper,L2,Bot*
G04 #@! TF.FilePolarity,Positive*
%FSLAX46Y46*%
G04 Gerber Fmt 4.6, Leading zero omitted, Abs format (unit mm)*
G04 Created by KiCad (PCBNEW 8.0.6) date 2025-03-21 23:15:14*
%MOMM*%
%LPD*%
G01*
G04 APERTURE LIST*
G04 Aperture macros list*
%AMRoundRect*
0 Rectangle with rounded corners*
0 $1 Rounding radius*
0 $2 $3 $4 $5 $6 $7 $8 $9 X,Y pos of 4 corners*
0 Add a 4 corners polygon primitive as box body*
4,1,4,$2,$3,$4,$5,$6,$7,$8,$9,$2,$3,0*
0 Add four circle primitives for the rounded corners*
1,1,$1+$1,$2,$3*
1,1,$1+$1,$4,$5*
1,1,$1+$1,$6,$7*
1,1,$1+$1,$8,$9*
0 Add four rect primitives between the rounded corners*
20,1,$1+$1,$2,$3,$4,$5,0*
20,1,$1+$1,$4,$5,$6,$7,0*
20,1,$1+$1,$6,$7,$8,$9,0*
20,1,$1+$1,$8,$9,$2,$3,0*%
G04 Aperture macros list end*
G04 #@! TA.AperFunction,ComponentPad*
%ADD10RoundRect,0.340500X0.659500X-0.409500X0.659500X0.409500X-0.659500X0.409500X-0.659500X-0.409500X0*%
G04 #@! TD*
G04 #@! TA.AperFunction,ComponentPad*
%ADD11O,2.000000X1.500000*%
G04 #@! TD*
G04 #@! TA.AperFunction,ViaPad*
%ADD12C,0.600000*%
G04 #@! TD*
G04 #@! TA.AperFunction,Conductor*
%ADD13C,0.300000*%
G04 #@! TD*
G04 APERTURE END LIST*
D10*
X72406606Y-23152627D03*
D11*
X72406606Y-25692627D03*
X62406606Y-25692627D03*
X62406606Y-23152627D03*
D10*
X28200000Y-23152627D03*
D11*
X28200000Y-25692627D03*
X18200000Y-25692627D03*
X18200000Y-23152627D03*
D12*
X69500000Y-32000000D03*
X39500000Y-27000000D03*
X69500000Y-27000000D03*
X54500000Y-32000000D03*
X64500000Y-32000000D03*
X54500000Y-34500000D03*
X77000000Y-32000000D03*
X67000000Y-14500000D03*
X77000000Y-27000000D03*
X19500000Y-14500000D03*
X62000000Y-14500000D03*
X52000000Y-27000000D03*
X52000000Y-29500000D03*
X32000000Y-17000000D03*
X47000000Y-34500000D03*
X27000000Y-14500000D03*
X77000000Y-29500000D03*
X57000000Y-19500000D03*
X74500000Y-17000000D03*
X22000000Y-17000000D03*
X27000000Y-32000000D03*
X22000000Y-29500000D03*
X14500000Y-14500000D03*
X69500000Y-14500000D03*
X44500000Y-32000000D03*
X59500000Y-34500000D03*
X14500000Y-29500000D03*
X69500000Y-29500000D03*
X64500000Y-17000000D03*
X32000000Y-14500000D03*
X74500000Y-29500000D03*
X14500000Y-27000000D03*
X77000000Y-14500000D03*
X64500000Y-19500000D03*
X22000000Y-27000000D03*
X24500000Y-32000000D03*
X74500000Y-22000000D03*
X77000000Y-24500000D03*
X72000000Y-29500000D03*
X77000000Y-22000000D03*
X57000000Y-32000000D03*
X22000000Y-14500000D03*
X49500000Y-24500000D03*
X24500000Y-34500000D03*
X77000000Y-19500000D03*
X42000000Y-32000000D03*
X24500000Y-19500000D03*
X57000000Y-34500000D03*
X77000000Y-34500000D03*
X24500000Y-27000000D03*
X32000000Y-22000000D03*
X74500000Y-27000000D03*
X69500000Y-17000000D03*
X72000000Y-17000000D03*
X29500000Y-14500000D03*
X74500000Y-14500000D03*
X72000000Y-34500000D03*
X77000000Y-17000000D03*
X52000000Y-22000000D03*
X22000000Y-34500000D03*
X37000000Y-34500000D03*
X72000000Y-19500000D03*
X24500000Y-14500000D03*
X29500000Y-34500000D03*
X24500000Y-29500000D03*
X62000000Y-17000000D03*
X64500000Y-29500000D03*
X27000000Y-34500000D03*
X62000000Y-29500000D03*
X14500000Y-34500000D03*
X67000000Y-17000000D03*
X72000000Y-32000000D03*
X37000000Y-27000000D03*
X14500000Y-19500000D03*
X14500000Y-32000000D03*
X19500000Y-29500000D03*
X47000000Y-32000000D03*
X19500000Y-32000000D03*
X32000000Y-27000000D03*
X54500000Y-27000000D03*
X17000000Y-29500000D03*
X17000000Y-19500000D03*
X19500000Y-34500000D03*
X59500000Y-29500000D03*
X32000000Y-34500000D03*
X74500000Y-24500000D03*
X59500000Y-32000000D03*
X62000000Y-32000000D03*
X14500000Y-17000000D03*
X19500000Y-19500000D03*
X17000000Y-14500000D03*
X62000000Y-19500000D03*
X72000000Y-14500000D03*
X57000000Y-17000000D03*
X22000000Y-19500000D03*
X27000000Y-17000000D03*
X14500000Y-24500000D03*
X54500000Y-22000000D03*
X69500000Y-34500000D03*
X22000000Y-32000000D03*
X74500000Y-32000000D03*
X69500000Y-19500000D03*
X59500000Y-14500000D03*
X74500000Y-19500000D03*
X14500000Y-22000000D03*
X57000000Y-29500000D03*
X34500000Y-34500000D03*
X67000000Y-32000000D03*
X17000000Y-32000000D03*
X64500000Y-14500000D03*
X44500000Y-34500000D03*
X19500000Y-17000000D03*
X17000000Y-34500000D03*
X62000000Y-34500000D03*
X42000000Y-34500000D03*
X29500000Y-17000000D03*
X32000000Y-29500000D03*
X74500000Y-34500000D03*
X24500000Y-17000000D03*
X39500000Y-29500000D03*
X67000000Y-34500000D03*
X67000000Y-29500000D03*
X54500000Y-29500000D03*
X52000000Y-24500000D03*
X64500000Y-34500000D03*
X17000000Y-17000000D03*
X67000000Y-19500000D03*
X59820000Y-23380000D03*
X59760000Y-18840000D03*
X35130000Y-17620000D03*
X36660000Y-21720000D03*
D13*
X35130000Y-20190000D02*
X35130000Y-17620000D01*
X59820000Y-23380000D02*
X59760000Y-23320000D01*
X59760000Y-23320000D02*
X59760000Y-18840000D01*
X36660000Y-21720000D02*
X35130000Y-20190000D01*
G04 #@! TA.AperFunction,Conductor*
G36*
X76419524Y-12715094D02*
G01*
X76442311Y-12716723D01*
X76645445Y-12731253D01*
X76666477Y-12734277D01*
X76882603Y-12781293D01*
X76902998Y-12787282D01*
X77110216Y-12864573D01*
X77129552Y-12873403D01*
X77323671Y-12979402D01*
X77341555Y-12990896D01*
X77518603Y-13123434D01*
X77534666Y-13137352D01*
X77691062Y-13293750D01*
X77704975Y-13309806D01*
X77823645Y-13468334D01*
X77837519Y-13486868D01*
X77849012Y-13504752D01*
X77955005Y-13698866D01*
X77963836Y-13718204D01*
X78041124Y-13925427D01*
X78047113Y-13945825D01*
X78094124Y-14161938D01*
X78097149Y-14182981D01*
X78113333Y-14409299D01*
X78113713Y-14419927D01*
X78113713Y-14473808D01*
X78113714Y-14473821D01*
X78113714Y-34408894D01*
X78113334Y-34419525D01*
X78097174Y-34645442D01*
X78094149Y-34666484D01*
X78047134Y-34882606D01*
X78041144Y-34903004D01*
X77963855Y-35110221D01*
X77955024Y-35129559D01*
X77849026Y-35323677D01*
X77837533Y-35341560D01*
X77704992Y-35518614D01*
X77691070Y-35534681D01*
X77534681Y-35691070D01*
X77518614Y-35704992D01*
X77341560Y-35837533D01*
X77323677Y-35849026D01*
X77129559Y-35955024D01*
X77110221Y-35963855D01*
X76903004Y-36041144D01*
X76882606Y-36047134D01*
X76666484Y-36094149D01*
X76645442Y-36097174D01*
X76450276Y-36111134D01*
X76419523Y-36113334D01*
X76408895Y-36113714D01*
X14473821Y-36113714D01*
X14473809Y-36113713D01*
X14419526Y-36113713D01*
X14408898Y-36113333D01*
X14182977Y-36097177D01*
X14161934Y-36094152D01*
X13945817Y-36047140D01*
X13925419Y-36041151D01*
X13718192Y-35963861D01*
X13698854Y-35955030D01*
X13504735Y-35849035D01*
X13486850Y-35837541D01*
X13309795Y-35705001D01*
X13293729Y-35691080D01*
X13137335Y-35534688D01*
X13123413Y-35518621D01*
X12990872Y-35341570D01*
X12979378Y-35323686D01*
X12966933Y-35300895D01*
X12873375Y-35129558D01*
X12864550Y-35110232D01*
X12787255Y-34903002D01*
X12781267Y-34882610D01*
X12769746Y-34829653D01*
X12734249Y-34666484D01*
X12731225Y-34645442D01*
X12724639Y-34553370D01*
X12715094Y-34419915D01*
X12714714Y-34409285D01*
X12714714Y-25542626D01*
X16909266Y-25542626D01*
X16909267Y-25542627D01*
X17826082Y-25542627D01*
X17800000Y-25639966D01*
X17800000Y-25745288D01*
X17826082Y-25842627D01*
X16909266Y-25842627D01*
X16940349Y-25998898D01*
X16940350Y-25998900D01*
X17019499Y-26189984D01*
X17019504Y-26189994D01*
X17134410Y-26361961D01*
X17134414Y-26361966D01*
X17280660Y-26508212D01*
X17280665Y-26508216D01*
X17452632Y-26623122D01*
X17452642Y-26623127D01*
X17643726Y-26702276D01*
X17643728Y-26702277D01*
X17846584Y-26742627D01*
X18050000Y-26742627D01*
X18050000Y-26066545D01*
X18147339Y-26092627D01*
X18252661Y-26092627D01*
X18350000Y-26066545D01*
X18350000Y-26742627D01*
X18553416Y-26742627D01*
X18756271Y-26702277D01*
X18756273Y-26702276D01*
X18947357Y-26623127D01*
X18947367Y-26623122D01*
X19119334Y-26508216D01*
X19119339Y-26508212D01*
X19265585Y-26361966D01*
X19265589Y-26361961D01*
X19380495Y-26189994D01*
X19380500Y-26189984D01*
X19459649Y-25998900D01*
X19459650Y-25998898D01*
X19490734Y-25842627D01*
X18573918Y-25842627D01*
X18600000Y-25745288D01*
X18600000Y-25639966D01*
X18573918Y-25542627D01*
X19490733Y-25542627D01*
X19490733Y-25542626D01*
X26909266Y-25542626D01*
X26909267Y-25542627D01*
X27826082Y-25542627D01*
X27800000Y-25639966D01*
X27800000Y-25745288D01*
X27826082Y-25842627D01*
X26909266Y-25842627D01*
X26940349Y-25998898D01*
X26940350Y-25998900D01*
X27019499Y-26189984D01*
X27019504Y-26189994D01*
X27134410Y-26361961D01*
X27134414Y-26361966D01*
X27280660Y-26508212D01*
X27280665Y-26508216D01*
X27452632Y-26623122D01*
X27452642Y-26623127D01*
X27643726Y-26702276D01*
X27643728Y-26702277D01*
X27846584Y-26742627D01*
X28050000Y-26742627D01*
X28050000Y-26066545D01*
X28147339Y-26092627D01*
X28252661Y-26092627D01*
X28350000Y-26066545D01*
X28350000Y-26742627D01*
X28553416Y-26742627D01*
X28756271Y-26702277D01*
X28756273Y-26702276D01*
X28947357Y-26623127D01*
X28947367Y-26623122D01*
X29119334Y-26508216D01*
X29119339Y-26508212D01*
X29265585Y-26361966D01*
X29265589Y-26361961D01*
X29380495Y-26189994D01*
X29380500Y-26189984D01*
X29459649Y-25998900D01*
X29459650Y-25998898D01*
X29490734Y-25842627D01*
X28573918Y-25842627D01*
X28600000Y-25745288D01*
X28600000Y-25639966D01*
X28573918Y-25542627D01*
X29490733Y-25542627D01*
X29490733Y-25542626D01*
X29459650Y-25386355D01*
X29459649Y-25386353D01*
X29380500Y-25195269D01*
X29380495Y-25195259D01*
X29265589Y-25023292D01*
X29265585Y-25023287D01*
X29119339Y-24877041D01*
X29119334Y-24877037D01*
X28947367Y-24762131D01*
X28947357Y-24762126D01*
X28756273Y-24682977D01*
X28756271Y-24682976D01*
X28553416Y-24642627D01*
X28350000Y-24642627D01*
X28350000Y-25318708D01*
X28252661Y-25292627D01*
X28147339Y-25292627D01*
X28050000Y-25318708D01*
X28050000Y-24642627D01*
X27846584Y-24642627D01*
X27643728Y-24682976D01*
X27643726Y-24682977D01*
X27452642Y-24762126D01*
X27452632Y-24762131D01*
X27280665Y-24877037D01*
X27280660Y-24877041D01*
X27134414Y-25023287D01*
X27134410Y-25023292D01*
X27019504Y-25195259D01*
X27019499Y-25195269D01*
X26940350Y-25386353D01*
X26940349Y-25386355D01*
X26909266Y-25542626D01*
X19490733Y-25542626D01*
X19459650Y-25386355D01*
X19459649Y-25386353D01*
X19380500Y-25195269D01*
X19380495Y-25195259D01*
X19265589Y-25023292D01*
X19265585Y-25023287D01*
X19119339Y-24877041D01*
X19119334Y-24877037D01*
X18947367Y-24762131D01*
X18947357Y-24762126D01*
X18756273Y-24682977D01*
X18756271Y-24682976D01*
X18553416Y-24642627D01*
X18350000Y-24642627D01*
X18350000Y-25318708D01*
X18252661Y-25292627D01*
X18147339Y-25292627D01*
X18050000Y-25318708D01*
X18050000Y-24642627D01*
X17846584Y-24642627D01*
X17643728Y-24682976D01*
X17643726Y-24682977D01*
X17452642Y-24762126D01*
X17452632Y-24762131D01*
X17280665Y-24877037D01*
X17280660Y-24877041D01*
X17134414Y-25023287D01*
X17134410Y-25023292D01*
X17019504Y-25195259D01*
X17019499Y-25195269D01*
X16940350Y-25386353D01*
X16940349Y-25386355D01*
X16909266Y-25542626D01*
X12714714Y-25542626D01*
X12714714Y-24414305D01*
X32304297Y-24414305D01*
X32304297Y-24414316D01*
X32324709Y-24699728D01*
X32324711Y-24699738D01*
X32385536Y-24979351D01*
X32485540Y-25247473D01*
X32622678Y-25498623D01*
X32688032Y-25585925D01*
X32794168Y-25727706D01*
X32996512Y-25930050D01*
X33088485Y-25998900D01*
X33225594Y-26101539D01*
X33387588Y-26189994D01*
X33476746Y-26238678D01*
X33744861Y-26338680D01*
X34024479Y-26399507D01*
X34024486Y-26399507D01*
X34024489Y-26399508D01*
X34309902Y-26419921D01*
X34309907Y-26419921D01*
X34309912Y-26419921D01*
X34595324Y-26399508D01*
X34595325Y-26399507D01*
X34595335Y-26399507D01*
X34874953Y-26338680D01*
X35143068Y-26238678D01*
X35282818Y-26162368D01*
X35394219Y-26101539D01*
X35406124Y-26092627D01*
X35623302Y-25930050D01*
X35825646Y-25727706D01*
X35997133Y-25498626D01*
X36134274Y-25247472D01*
X36234276Y-24979357D01*
X36295103Y-24699739D01*
X36315517Y-24414311D01*
X36315517Y-24414305D01*
X54504297Y-24414305D01*
X54504297Y-24414316D01*
X54524709Y-24699728D01*
X54524711Y-24699738D01*
X54585536Y-24979351D01*
X54685540Y-25247473D01*
X54822678Y-25498623D01*
X54888032Y-25585925D01*
X54994168Y-25727706D01*
X55196512Y-25930050D01*
X55288485Y-25998900D01*
X55425594Y-26101539D01*
X55587588Y-26189994D01*
X55676746Y-26238678D01*
X55944861Y-26338680D01*
X56224479Y-26399507D01*
X56224486Y-26399507D01*
X56224489Y-26399508D01*
X56509902Y-26419921D01*
X56509907Y-26419921D01*
X56509912Y-26419921D01*
X56795324Y-26399508D01*
X56795325Y-26399507D01*
X56795335Y-26399507D01*
X57074953Y-26338680D01*
X57343068Y-26238678D01*
X57482818Y-26162368D01*
X57594219Y-26101539D01*
X57606124Y-26092627D01*
X57823302Y-25930050D01*
X58025646Y-25727706D01*
X58164195Y-25542626D01*
X61115872Y-25542626D01*
X61115873Y-25542627D01*
X62032688Y-25542627D01*
X62006606Y-25639966D01*
X62006606Y-25745288D01*
X62032688Y-25842627D01*
X61115872Y-25842627D01*
X61146955Y-25998898D01*
X61146956Y-25998900D01*
X61226105Y-26189984D01*
X61226110Y-26189994D01*
X61341016Y-26361961D01*
X61341020Y-26361966D01*
X61487266Y-26508212D01*
X61487271Y-26508216D01*
X61659238Y-26623122D01*
X61659248Y-26623127D01*
X61850332Y-26702276D01*
X61850334Y-26702277D01*
X62053190Y-26742627D01*
X62256606Y-26742627D01*
X62256606Y-26066545D01*
X62353945Y-26092627D01*
X62459267Y-26092627D01*
X62556606Y-26066545D01*
X62556606Y-26742627D01*
X62760022Y-26742627D01*
X62962877Y-26702277D01*
X62962879Y-26702276D01*
X63153963Y-26623127D01*
X63153973Y-26623122D01*
X63325940Y-26508216D01*
X63325945Y-26508212D01*
X63472191Y-26361966D01*
X63472195Y-26361961D01*
X63587101Y-26189994D01*
X63587106Y-26189984D01*
X63666255Y-25998900D01*
X63666256Y-25998898D01*
X63697340Y-25842627D01*
X62780524Y-25842627D01*
X62806606Y-25745288D01*
X62806606Y-25639966D01*
X62780524Y-25542627D01*
X63697339Y-25542627D01*
X63697339Y-25542626D01*
X71115872Y-25542626D01*
X71115873Y-25542627D01*
X72032688Y-25542627D01*
X72006606Y-25639966D01*
X72006606Y-25745288D01*
X72032688Y-25842627D01*
X71115872Y-25842627D01*
X71146955Y-25998898D01*
X71146956Y-25998900D01*
X71226105Y-26189984D01*
X71226110Y-26189994D01*
X71341016Y-26361961D01*
X71341020Y-26361966D01*
X71487266Y-26508212D01*
X71487271Y-26508216D01*
X71659238Y-26623122D01*
X71659248Y-26623127D01*
X71850332Y-26702276D01*
X71850334Y-26702277D01*
X72053190Y-26742627D01*
X72256606Y-26742627D01*
X72256606Y-26066545D01*
X72353945Y-26092627D01*
X72459267Y-26092627D01*
X72556606Y-26066545D01*
X72556606Y-26742627D01*
X72760022Y-26742627D01*
X72962877Y-26702277D01*
X72962879Y-26702276D01*
X73153963Y-26623127D01*
X73153973Y-26623122D01*
X73325940Y-26508216D01*
X73325945Y-26508212D01*
X73472191Y-26361966D01*
X73472195Y-26361961D01*
X73587101Y-26189994D01*
X73587106Y-26189984D01*
X73666255Y-25998900D01*
X73666256Y-25998898D01*
X73697340Y-25842627D01*
X72780524Y-25842627D01*
X72806606Y-25745288D01*
X72806606Y-25639966D01*
X72780524Y-25542627D01*
X73697339Y-25542627D01*
X73697339Y-25542626D01*
X73666256Y-25386355D01*
X73666255Y-25386353D01*
X73587106Y-25195269D01*
X73587101Y-25195259D01*
X73472195Y-25023292D01*
X73472191Y-25023287D01*
X73325945Y-24877041D01*
X73325940Y-24877037D01*
X73153973Y-24762131D01*
X73153963Y-24762126D01*
X72962879Y-24682977D01*
X72962877Y-24682976D01*
X72760022Y-24642627D01*
X72556606Y-24642627D01*
X72556606Y-25318708D01*
X72459267Y-25292627D01*
X72353945Y-25292627D01*
X72256606Y-25318708D01*
X72256606Y-24642627D01*
X72053190Y-24642627D01*
X71850334Y-24682976D01*
X71850332Y-24682977D01*
X71659248Y-24762126D01*
X71659238Y-24762131D01*
X71487271Y-24877037D01*
X71487266Y-24877041D01*
X71341020Y-25023287D01*
X71341016Y-25023292D01*
X71226110Y-25195259D01*
X71226105Y-25195269D01*
X71146956Y-25386353D01*
X71146955Y-25386355D01*
X71115872Y-25542626D01*
X63697339Y-25542626D01*
X63666256Y-25386355D01*
X63666255Y-25386353D01*
X63587106Y-25195269D01*
X63587101Y-25195259D01*
X63472195Y-25023292D01*
X63472191Y-25023287D01*
X63325945Y-24877041D01*
X63325940Y-24877037D01*
X63153973Y-24762131D01*
X63153963Y-24762126D01*
X62962879Y-24682977D01*
X62962877Y-24682976D01*
X62760022Y-24642627D01*
X62556606Y-24642627D01*
X62556606Y-25318708D01*
X62459267Y-25292627D01*
X62353945Y-25292627D01*
X62256606Y-25318708D01*
X62256606Y-24642627D01*
X62053190Y-24642627D01*
X61850334Y-24682976D01*
X61850332Y-24682977D01*
X61659248Y-24762126D01*
X61659238Y-24762131D01*
X61487271Y-24877037D01*
X61487266Y-24877041D01*
X61341020Y-25023287D01*
X61341016Y-25023292D01*
X61226110Y-25195259D01*
X61226105Y-25195269D01*
X61146956Y-25386353D01*
X61146955Y-25386355D01*
X61115872Y-25542626D01*
X58164195Y-25542626D01*
X58197133Y-25498626D01*
X58334274Y-25247472D01*
X58434276Y-24979357D01*
X58495103Y-24699739D01*
X58515517Y-24414311D01*
X58500208Y-24200267D01*
X58495104Y-24128893D01*
X58495103Y-24128890D01*
X58495103Y-24128883D01*
X58434276Y-23849265D01*
X58334274Y-23581150D01*
X58310036Y-23536762D01*
X58197135Y-23329998D01*
X58117215Y-23223238D01*
X58025646Y-23100916D01*
X57823302Y-22898572D01*
X57732287Y-22830439D01*
X57594219Y-22727082D01*
X57343069Y-22589944D01*
X57179361Y-22528884D01*
X57074953Y-22489942D01*
X57074951Y-22489941D01*
X57074947Y-22489940D01*
X56862005Y-22443618D01*
X56795335Y-22429115D01*
X56795333Y-22429114D01*
X56795324Y-22429113D01*
X56509912Y-22408701D01*
X56509902Y-22408701D01*
X56224489Y-22429113D01*
X56224479Y-22429115D01*
X55944866Y-22489940D01*
X55676744Y-22589944D01*
X55425594Y-22727082D01*
X55196513Y-22898571D01*
X54994167Y-23100917D01*
X54822678Y-23329998D01*
X54685540Y-23581148D01*
X54585536Y-23849270D01*
X54524711Y-24128883D01*
X54524709Y-24128893D01*
X54504297Y-24414305D01*
X36315517Y-24414305D01*
X36300208Y-24200267D01*
X36295104Y-24128893D01*
X36295103Y-24128890D01*
X36295103Y-24128883D01*
X36234276Y-23849265D01*
X36134274Y-23581150D01*
X36110036Y-23536762D01*
X35997135Y-23329998D01*
X35917215Y-23223238D01*
X35825646Y-23100916D01*
X35623302Y-22898572D01*
X35532287Y-22830439D01*
X35394219Y-22727082D01*
X35143069Y-22589944D01*
X34979361Y-22528884D01*
X34874953Y-22489942D01*
X34874951Y-22489941D01*
X34874947Y-22489940D01*
X34662005Y-22443618D01*
X34595335Y-22429115D01*
X34595333Y-22429114D01*
X34595324Y-22429113D01*
X34309912Y-22408701D01*
X34309902Y-22408701D01*
X34024489Y-22429113D01*
X34024479Y-22429115D01*
X33744866Y-22489940D01*
X33476744Y-22589944D01*
X33225594Y-22727082D01*
X32996513Y-22898571D01*
X32794167Y-23100917D01*
X32622678Y-23329998D01*
X32485540Y-23581148D01*
X32385536Y-23849270D01*
X32324711Y-24128883D01*
X32324709Y-24128893D01*
X32304297Y-24414305D01*
X12714714Y-24414305D01*
X12714714Y-23049161D01*
X16899500Y-23049161D01*
X16899500Y-23256092D01*
X16939869Y-23459044D01*
X17019057Y-23650223D01*
X17134022Y-23822281D01*
X17280345Y-23968604D01*
X17452403Y-24083569D01*
X17531591Y-24116369D01*
X17643580Y-24162757D01*
X17846535Y-24203127D01*
X18553465Y-24203127D01*
X18756420Y-24162757D01*
X18947598Y-24083568D01*
X19119655Y-23968604D01*
X19265977Y-23822282D01*
X19380941Y-23650225D01*
X19460130Y-23459047D01*
X19500500Y-23256092D01*
X19500500Y-23049162D01*
X19460130Y-22846207D01*
X19390619Y-22678393D01*
X26899500Y-22678393D01*
X26899500Y-23626861D01*
X26901339Y-23650223D01*
X26902360Y-23663202D01*
X26902361Y-23663204D01*
X26947541Y-23818717D01*
X26947542Y-23818719D01*
X26947543Y-23818722D01*
X27029985Y-23958123D01*
X27144504Y-24072642D01*
X27283905Y-24155084D01*
X27439423Y-24200265D01*
X27439424Y-24200266D01*
X27439428Y-24200267D01*
X27475766Y-24203127D01*
X27475774Y-24203127D01*
X28924226Y-24203127D01*
X28924234Y-24203127D01*
X28960572Y-24200267D01*
X29116095Y-24155084D01*
X29255496Y-24072642D01*
X29370015Y-23958123D01*
X29452457Y-23818722D01*
X29497640Y-23663199D01*
X29500500Y-23626861D01*
X29500500Y-22678393D01*
X29497640Y-22642055D01*
X29452457Y-22486532D01*
X29370015Y-22347131D01*
X29255496Y-22232612D01*
X29237021Y-22221686D01*
X29200177Y-22199896D01*
X29116095Y-22150170D01*
X29116092Y-22150169D01*
X29116090Y-22150168D01*
X28960577Y-22104988D01*
X28960575Y-22104987D01*
X28950661Y-22104207D01*
X28924234Y-22102127D01*
X27475766Y-22102127D01*
X27451540Y-22104033D01*
X27439424Y-22104987D01*
X27439422Y-22104988D01*
X27283909Y-22150168D01*
X27283903Y-22150171D01*
X27144511Y-22232607D01*
X27144506Y-22232610D01*
X27144504Y-22232612D01*
X27144502Y-22232614D01*
X27029987Y-22347129D01*
X27029980Y-22347138D01*
X26947544Y-22486530D01*
X26947541Y-22486536D01*
X26902361Y-22642049D01*
X26902360Y-22642051D01*
X26902360Y-22642055D01*
X26899500Y-22678393D01*
X19390619Y-22678393D01*
X19380942Y-22655030D01*
X19265977Y-22482972D01*
X19119654Y-22336649D01*
X18947596Y-22221684D01*
X18789219Y-22156082D01*
X18756420Y-22142497D01*
X18756418Y-22142496D01*
X18756417Y-22142496D01*
X18553465Y-22102127D01*
X17846535Y-22102127D01*
X17643582Y-22142496D01*
X17452403Y-22221684D01*
X17280345Y-22336649D01*
X17134022Y-22482972D01*
X17019057Y-22655030D01*
X16939869Y-22846209D01*
X16899500Y-23049161D01*
X12714714Y-23049161D01*
X12714714Y-17619997D01*
X34524318Y-17619997D01*
X34524318Y-17620002D01*
X34544954Y-17776759D01*
X34605462Y-17922840D01*
X34605463Y-17922841D01*
X34648708Y-17979197D01*
X34678225Y-18050453D01*
X34679500Y-18069904D01*
X34679500Y-20249310D01*
X34703713Y-20339672D01*
X34710202Y-20363891D01*
X34769506Y-20466607D01*
X34769509Y-20466611D01*
X34769511Y-20466614D01*
X35720055Y-21417159D01*
X36023317Y-21720421D01*
X36061881Y-21787216D01*
X36065683Y-21806330D01*
X36074956Y-21876762D01*
X36135463Y-22022840D01*
X36198497Y-22104987D01*
X36231718Y-22148282D01*
X36357159Y-22244536D01*
X36503238Y-22305044D01*
X36503241Y-22305044D01*
X36503243Y-22305045D01*
X36503240Y-22305045D01*
X36659997Y-22325682D01*
X36660000Y-22325682D01*
X36660003Y-22325682D01*
X36816757Y-22305045D01*
X36816758Y-22305044D01*
X36816762Y-22305044D01*
X36962841Y-22244536D01*
X37088282Y-22148282D01*
X37184536Y-22022841D01*
X37245044Y-21876762D01*
X37254317Y-21806330D01*
X37265682Y-21720002D01*
X37265682Y-21719997D01*
X37245045Y-21563242D01*
X37245044Y-21563240D01*
X37245044Y-21563238D01*
X37184536Y-21417159D01*
X37088282Y-21291718D01*
X36962841Y-21195464D01*
X36962840Y-21195463D01*
X36816762Y-21134956D01*
X36746330Y-21125683D01*
X36675073Y-21096167D01*
X36660421Y-21083317D01*
X35624141Y-20047037D01*
X35585577Y-19980242D01*
X35580500Y-19941678D01*
X35580500Y-18839997D01*
X59154318Y-18839997D01*
X59154318Y-18840002D01*
X59174954Y-18996759D01*
X59235462Y-19142840D01*
X59235463Y-19142841D01*
X59278708Y-19199197D01*
X59308225Y-19270453D01*
X59309500Y-19289904D01*
X59309500Y-23013635D01*
X59298158Y-23070655D01*
X59234954Y-23223242D01*
X59214318Y-23379997D01*
X59214318Y-23380002D01*
X59234954Y-23536757D01*
X59295463Y-23682840D01*
X59295464Y-23682841D01*
X59391718Y-23808282D01*
X59517159Y-23904536D01*
X59663238Y-23965044D01*
X59663241Y-23965044D01*
X59663243Y-23965045D01*
X59663240Y-23965045D01*
X59819997Y-23985682D01*
X59820000Y-23985682D01*
X59820003Y-23985682D01*
X59976757Y-23965045D01*
X59976758Y-23965044D01*
X59976762Y-23965044D01*
X60122841Y-23904536D01*
X60248282Y-23808282D01*
X60344536Y-23682841D01*
X60405044Y-23536762D01*
X60415276Y-23459047D01*
X60425682Y-23380002D01*
X60425682Y-23379997D01*
X60405045Y-23223242D01*
X60405044Y-23223240D01*
X60405044Y-23223238D01*
X60344536Y-23077159D01*
X60323053Y-23049161D01*
X61106106Y-23049161D01*
X61106106Y-23256092D01*
X61146475Y-23459044D01*
X61225663Y-23650223D01*
X61340628Y-23822281D01*
X61486951Y-23968604D01*
X61659009Y-24083569D01*
X61738197Y-24116369D01*
X61850186Y-24162757D01*
X62053141Y-24203127D01*
X62760071Y-24203127D01*
X62963026Y-24162757D01*
X63154204Y-24083568D01*
X63326261Y-23968604D01*
X63472583Y-23822282D01*
X63587547Y-23650225D01*
X63666736Y-23459047D01*
X63707106Y-23256092D01*
X63707106Y-23049162D01*
X63666736Y-22846207D01*
X63597225Y-22678393D01*
X71106106Y-22678393D01*
X71106106Y-23626861D01*
X71107945Y-23650223D01*
X71108966Y-23663202D01*
X71108967Y-23663204D01*
X71154147Y-23818717D01*
X71154148Y-23818719D01*
X71154149Y-23818722D01*
X71236591Y-23958123D01*
X71351110Y-24072642D01*
X71490511Y-24155084D01*
X71646029Y-24200265D01*
X71646030Y-24200266D01*
X71646034Y-24200267D01*
X71682372Y-24203127D01*
X71682380Y-24203127D01*
X73130832Y-24203127D01*
X73130840Y-24203127D01*
X73167178Y-24200267D01*
X73322701Y-24155084D01*
X73462102Y-24072642D01*
X73576621Y-23958123D01*
X73659063Y-23818722D01*
X73704246Y-23663199D01*
X73707106Y-23626861D01*
X73707106Y-22678393D01*
X73704246Y-22642055D01*
X73659063Y-22486532D01*
X73576621Y-22347131D01*
X73462102Y-22232612D01*
X73443627Y-22221686D01*
X73406783Y-22199896D01*
X73322701Y-22150170D01*
X73322698Y-22150169D01*
X73322696Y-22150168D01*
X73167183Y-22104988D01*
X73167181Y-22104987D01*
X73157267Y-22104207D01*
X73130840Y-22102127D01*
X71682372Y-22102127D01*
X71658146Y-22104033D01*
X71646030Y-22104987D01*
X71646028Y-22104988D01*
X71490515Y-22150168D01*
X71490509Y-22150171D01*
X71351117Y-22232607D01*
X71351112Y-22232610D01*
X71351110Y-22232612D01*
X71351108Y-22232614D01*
X71236593Y-22347129D01*
X71236586Y-22347138D01*
X71154150Y-22486530D01*
X71154147Y-22486536D01*
X71108967Y-22642049D01*
X71108966Y-22642051D01*
X71108966Y-22642055D01*
X71106106Y-22678393D01*
X63597225Y-22678393D01*
X63587548Y-22655030D01*
X63472583Y-22482972D01*
X63326260Y-22336649D01*
X63154202Y-22221684D01*
X62995825Y-22156082D01*
X62963026Y-22142497D01*
X62963024Y-22142496D01*
X62963023Y-22142496D01*
X62760071Y-22102127D01*
X62053141Y-22102127D01*
X61850188Y-22142496D01*
X61659009Y-22221684D01*
X61486951Y-22336649D01*
X61340628Y-22482972D01*
X61225663Y-22655030D01*
X61146475Y-22846209D01*
X61106106Y-23049161D01*
X60323053Y-23049161D01*
X60300363Y-23019591D01*
X60242337Y-22943970D01*
X60245072Y-22941870D01*
X60215577Y-22890782D01*
X60210500Y-22852218D01*
X60210500Y-19289904D01*
X60230462Y-19215404D01*
X60241292Y-19199197D01*
X60284536Y-19142841D01*
X60284537Y-19142840D01*
X60345045Y-18996759D01*
X60365682Y-18840002D01*
X60365682Y-18839997D01*
X60345045Y-18683242D01*
X60345044Y-18683240D01*
X60345044Y-18683238D01*
X60284536Y-18537159D01*
X60188282Y-18411718D01*
X60062841Y-18315464D01*
X60062840Y-18315463D01*
X59982944Y-18282369D01*
X59916762Y-18254956D01*
X59916760Y-18254955D01*
X59916756Y-18254954D01*
X59916759Y-18254954D01*
X59760003Y-18234318D01*
X59759997Y-18234318D01*
X59603242Y-18254954D01*
X59457159Y-18315463D01*
X59331718Y-18411717D01*
X59331717Y-18411718D01*
X59235463Y-18537159D01*
X59174954Y-18683242D01*
X59154318Y-18839997D01*
X35580500Y-18839997D01*
X35580500Y-18069904D01*
X35600462Y-17995404D01*
X35611292Y-17979197D01*
X35654536Y-17922841D01*
X35654537Y-17922840D01*
X35715045Y-17776759D01*
X35735682Y-17620002D01*
X35735682Y-17619997D01*
X35715045Y-17463242D01*
X35715044Y-17463240D01*
X35715044Y-17463238D01*
X35654536Y-17317159D01*
X35558282Y-17191718D01*
X35432841Y-17095464D01*
X35432840Y-17095463D01*
X35352944Y-17062369D01*
X35286762Y-17034956D01*
X35286760Y-17034955D01*
X35286756Y-17034954D01*
X35286759Y-17034954D01*
X35130003Y-17014318D01*
X35129997Y-17014318D01*
X34973242Y-17034954D01*
X34827159Y-17095463D01*
X34701718Y-17191717D01*
X34701717Y-17191718D01*
X34605463Y-17317159D01*
X34544954Y-17463242D01*
X34524318Y-17619997D01*
X12714714Y-17619997D01*
X12714714Y-14419527D01*
X12715094Y-14408898D01*
X12724666Y-14275061D01*
X12731252Y-14182975D01*
X12734274Y-14161947D01*
X12781290Y-13945819D01*
X12787278Y-13925426D01*
X12864573Y-13718187D01*
X12873398Y-13698866D01*
X12979396Y-13504744D01*
X12990887Y-13486864D01*
X13004754Y-13468340D01*
X13123435Y-13309800D01*
X13137343Y-13293749D01*
X13293748Y-13137345D01*
X13309802Y-13123434D01*
X13486874Y-12990880D01*
X13504734Y-12979402D01*
X13698861Y-12873401D01*
X13718196Y-12864572D01*
X13925426Y-12787279D01*
X13945819Y-12781290D01*
X14161946Y-12734274D01*
X14182974Y-12731252D01*
X14408900Y-12715094D01*
X14419529Y-12714714D01*
X14461808Y-12714714D01*
X76366617Y-12714714D01*
X76408894Y-12714714D01*
X76419524Y-12715094D01*
G37*
G04 #@! TD.AperFunction*
M02*
