M48
; DRILL file {KiCad 8.0.6} date 2025-03-21T23:16:47+0000
; FORMAT={-:-/ absolute / metric / decimal}
; #@! TF.CreationDate,2025-03-21T23:16:47+00:00
; #@! TF.GenerationSoftware,Kicad,Pcbnew,8.0.6
; #@! TF.FileFunction,Plated,1,2,PTH
FMAT,2
METRIC
; #@! TA.AperFunction,Plated,PTH,ViaDrill
T1C0.300
; #@! TA.AperFunction,Plated,PTH,ComponentDrill
T2C0.800
%
G90
G05
T1
X14.5Y-14.5
X14.5Y-17.0
X14.5Y-19.5
X14.5Y-22.0
X14.5Y-24.5
X14.5Y-27.0
X14.5Y-29.5
X14.5Y-32.0
X14.5Y-34.5
X17.0Y-14.5
X17.0Y-17.0
X17.0Y-19.5
X17.0Y-29.5
X17.0Y-32.0
X17.0Y-34.5
X19.5Y-14.5
X19.5Y-17.0
X19.5Y-19.5
X19.5Y-29.5
X19.5Y-32.0
X19.5Y-34.5
X22.0Y-14.5
X22.0Y-17.0
X22.0Y-19.5
X22.0Y-27.0
X22.0Y-29.5
X22.0Y-32.0
X22.0Y-34.5
X24.5Y-14.5
X24.5Y-17.0
X24.5Y-19.5
X24.5Y-27.0
X24.5Y-29.5
X24.5Y-32.0
X24.5Y-34.5
X27.0Y-14.5
X27.0Y-17.0
X27.0Y-32.0
X27.0Y-34.5
X29.5Y-14.5
X29.5Y-17.0
X29.5Y-34.5
X32.0Y-14.5
X32.0Y-17.0
X32.0Y-22.0
X32.0Y-27.0
X32.0Y-29.5
X32.0Y-34.5
X34.5Y-34.5
X35.13Y-17.62
X36.66Y-21.72
X37.0Y-27.0
X37.0Y-34.5
X39.5Y-27.0
X39.5Y-29.5
X42.0Y-32.0
X42.0Y-34.5
X44.5Y-32.0
X44.5Y-34.5
X47.0Y-32.0
X47.0Y-34.5
X49.5Y-24.5
X52.0Y-22.0
X52.0Y-24.5
X52.0Y-27.0
X52.0Y-29.5
X54.5Y-22.0
X54.5Y-27.0
X54.5Y-29.5
X54.5Y-32.0
X54.5Y-34.5
X57.0Y-17.0
X57.0Y-19.5
X57.0Y-29.5
X57.0Y-32.0
X57.0Y-34.5
X59.5Y-14.5
X59.5Y-29.5
X59.5Y-32.0
X59.5Y-34.5
X59.76Y-18.84
X59.82Y-23.38
X62.0Y-14.5
X62.0Y-17.0
X62.0Y-19.5
X62.0Y-29.5
X62.0Y-32.0
X62.0Y-34.5
X64.5Y-14.5
X64.5Y-17.0
X64.5Y-19.5
X64.5Y-29.5
X64.5Y-32.0
X64.5Y-34.5
X67.0Y-14.5
X67.0Y-17.0
X67.0Y-19.5
X67.0Y-29.5
X67.0Y-32.0
X67.0Y-34.5
X69.5Y-14.5
X69.5Y-17.0
X69.5Y-19.5
X69.5Y-27.0
X69.5Y-29.5
X69.5Y-32.0
X69.5Y-34.5
X72.0Y-14.5
X72.0Y-17.0
X72.0Y-19.5
X72.0Y-29.5
X72.0Y-32.0
X72.0Y-34.5
X74.5Y-14.5
X74.5Y-17.0
X74.5Y-19.5
X74.5Y-22.0
X74.5Y-24.5
X74.5Y-27.0
X74.5Y-29.5
X74.5Y-32.0
X74.5Y-34.5
X77.0Y-14.5
X77.0Y-17.0
X77.0Y-19.5
X77.0Y-22.0
X77.0Y-24.5
X77.0Y-27.0
X77.0Y-29.5
X77.0Y-32.0
X77.0Y-34.5
T2
X18.2Y-23.153
X18.2Y-25.693
X28.2Y-23.153
X28.2Y-25.693
X62.407Y-23.153
X62.407Y-25.693
X72.407Y-23.153
X72.407Y-25.693
M30
