G04 #@! TF.GenerationSoftware,KiCad,Pcbnew,8.0.6*
G04 #@! TF.CreationDate,2025-03-21T23:15:14+00:00*
G04 #@! TF.ProjectId,imu_rc_car_encoders,696d755f-7263-45f6-9361-725f656e636f,rev?*
G04 #@! TF.SameCoordinates,Original*
G04 #@! TF.FileFunction,Paste,Top*
G04 #@! TF.FilePolarity,Positive*
%FSLAX46Y46*%
G04 Gerber Fmt 4.6, Leading zero omitted, Abs format (unit mm)*
G04 Created by KiCad (PCBNEW 8.0.6) date 2025-03-21 23:15:14*
%MOMM*%
%LPD*%
G01*
G04 APERTURE LIST*
G04 Aperture macros list*
%AMRoundRect*
0 Rectangle with rounded corners*
0 $1 Rounding radius*
0 $2 $3 $4 $5 $6 $7 $8 $9 X,Y pos of 4 corners*
0 Add a 4 corners polygon primitive as box body*
4,1,4,$2,$3,$4,$5,$6,$7,$8,$9,$2,$3,0*
0 Add four circle primitives for the rounded corners*
1,1,$1+$1,$2,$3*
1,1,$1+$1,$4,$5*
1,1,$1+$1,$6,$7*
1,1,$1+$1,$8,$9*
0 Add four rect primitives between the rounded corners*
20,1,$1+$1,$2,$3,$4,$5,0*
20,1,$1+$1,$4,$5,$6,$7,0*
20,1,$1+$1,$6,$7,$8,$9,0*
20,1,$1+$1,$8,$9,$2,$3,0*%
G04 Aperture macros list end*
%ADD10RoundRect,0.250000X-0.475000X0.250000X-0.475000X-0.250000X0.475000X-0.250000X0.475000X0.250000X0*%
%ADD11RoundRect,0.250000X0.262500X0.450000X-0.262500X0.450000X-0.262500X-0.450000X0.262500X-0.450000X0*%
%ADD12RoundRect,0.243750X0.456250X-0.243750X0.456250X0.243750X-0.456250X0.243750X-0.456250X-0.243750X0*%
%ADD13RoundRect,0.150000X-0.825000X-0.150000X0.825000X-0.150000X0.825000X0.150000X-0.825000X0.150000X0*%
%ADD14RoundRect,0.250000X-0.262500X-0.450000X0.262500X-0.450000X0.262500X0.450000X-0.262500X0.450000X0*%
%ADD15RoundRect,0.250000X0.450000X-0.262500X0.450000X0.262500X-0.450000X0.262500X-0.450000X-0.262500X0*%
%ADD16RoundRect,0.250000X-0.250000X-0.475000X0.250000X-0.475000X0.250000X0.475000X-0.250000X0.475000X0*%
%ADD17RoundRect,0.250000X-0.250000X-1.500000X0.250000X-1.500000X0.250000X1.500000X-0.250000X1.500000X0*%
%ADD18RoundRect,0.250001X-0.499999X-1.449999X0.499999X-1.449999X0.499999X1.449999X-0.499999X1.449999X0*%
%ADD19RoundRect,0.250000X-0.450000X0.262500X-0.450000X-0.262500X0.450000X-0.262500X0.450000X0.262500X0*%
%ADD20RoundRect,0.250000X0.475000X-0.250000X0.475000X0.250000X-0.475000X0.250000X-0.475000X-0.250000X0*%
G04 APERTURE END LIST*
D10*
X50038098Y-21009623D03*
X50038098Y-22909623D03*
D11*
X47840645Y-15116341D03*
X46015645Y-15116341D03*
D12*
X36510000Y-31180000D03*
X36510000Y-29305000D03*
D13*
X42499378Y-17201331D03*
X42499378Y-18471331D03*
X42499378Y-19741331D03*
X42499378Y-21011331D03*
X47449378Y-21011331D03*
X47449378Y-19741331D03*
X47449378Y-18471331D03*
X47449378Y-17201331D03*
D14*
X52065000Y-16920000D03*
X53890000Y-16920000D03*
D15*
X25710000Y-25001250D03*
X25710000Y-23176250D03*
X67440000Y-25023750D03*
X67440000Y-23198750D03*
D14*
X42115645Y-15116341D03*
X43940645Y-15116341D03*
D15*
X37403145Y-17641341D03*
X37403145Y-15816341D03*
X23225000Y-25001250D03*
X23225000Y-23176250D03*
D10*
X20710000Y-23158750D03*
X20710000Y-25058750D03*
D16*
X42420000Y-24840000D03*
X44320000Y-24840000D03*
D14*
X52062355Y-19107109D03*
X53887355Y-19107109D03*
D10*
X64925000Y-23141250D03*
X64925000Y-25041250D03*
D15*
X69925000Y-25023750D03*
X69925000Y-23198750D03*
D17*
X42418758Y-28343805D03*
X44418758Y-28343805D03*
X46418758Y-28343805D03*
X48418758Y-28343805D03*
D18*
X40068758Y-34093805D03*
X50768758Y-34093805D03*
D19*
X33989145Y-29359742D03*
X33989145Y-31184742D03*
D20*
X49979237Y-17205366D03*
X49979237Y-15305366D03*
D19*
X39903145Y-15816341D03*
X39903145Y-17641341D03*
D10*
X39903145Y-19741341D03*
X39903145Y-21641341D03*
M02*
