G04 #@! TF.GenerationSoftware,KiCad,Pcbnew,8.0.6*
G04 #@! TF.CreationDate,2025-03-21T23:15:14+00:00*
G04 #@! TF.ProjectId,imu_rc_car_encoders,696d755f-7263-45f6-9361-725f656e636f,rev?*
G04 #@! TF.SameCoordinates,Original*
G04 #@! TF.FileFunction,Legend,Bot*
G04 #@! TF.FilePolarity,Positive*
%FSLAX46Y46*%
G04 Gerber Fmt 4.6, Leading zero omitted, Abs format (unit mm)*
G04 Created by KiCad (PCBNEW 8.0.6) date 2025-03-21 23:15:14*
%MOMM*%
%LPD*%
G01*
G04 APERTURE LIST*
G04 Aperture macros list*
%AMRoundRect*
0 Rectangle with rounded corners*
0 $1 Rounding radius*
0 $2 $3 $4 $5 $6 $7 $8 $9 X,Y pos of 4 corners*
0 Add a 4 corners polygon primitive as box body*
4,1,4,$2,$3,$4,$5,$6,$7,$8,$9,$2,$3,0*
0 Add four circle primitives for the rounded corners*
1,1,$1+$1,$2,$3*
1,1,$1+$1,$4,$5*
1,1,$1+$1,$6,$7*
1,1,$1+$1,$8,$9*
0 Add four rect primitives between the rounded corners*
20,1,$1+$1,$2,$3,$4,$5,0*
20,1,$1+$1,$4,$5,$6,$7,0*
20,1,$1+$1,$6,$7,$8,$9,0*
20,1,$1+$1,$8,$9,$2,$3,0*%
G04 Aperture macros list end*
%ADD10C,0.150000*%
%ADD11C,0.120000*%
%ADD12C,0.360000*%
%ADD13RoundRect,0.340500X0.659500X-0.409500X0.659500X0.409500X-0.659500X0.409500X-0.659500X-0.409500X0*%
%ADD14O,2.000000X1.500000*%
G04 APERTURE END LIST*
D10*
X75267194Y-19607446D02*
X75267194Y-20416969D01*
X75267194Y-20416969D02*
X75219575Y-20512207D01*
X75219575Y-20512207D02*
X75171956Y-20559827D01*
X75171956Y-20559827D02*
X75076718Y-20607446D01*
X75076718Y-20607446D02*
X74886242Y-20607446D01*
X74886242Y-20607446D02*
X74791004Y-20559827D01*
X74791004Y-20559827D02*
X74743385Y-20512207D01*
X74743385Y-20512207D02*
X74695766Y-20416969D01*
X74695766Y-20416969D02*
X74695766Y-19607446D01*
X74267194Y-19702684D02*
X74219575Y-19655065D01*
X74219575Y-19655065D02*
X74124337Y-19607446D01*
X74124337Y-19607446D02*
X73886242Y-19607446D01*
X73886242Y-19607446D02*
X73791004Y-19655065D01*
X73791004Y-19655065D02*
X73743385Y-19702684D01*
X73743385Y-19702684D02*
X73695766Y-19797922D01*
X73695766Y-19797922D02*
X73695766Y-19893160D01*
X73695766Y-19893160D02*
X73743385Y-20036017D01*
X73743385Y-20036017D02*
X74314813Y-20607446D01*
X74314813Y-20607446D02*
X73695766Y-20607446D01*
X31060588Y-19607446D02*
X31060588Y-20416969D01*
X31060588Y-20416969D02*
X31012969Y-20512207D01*
X31012969Y-20512207D02*
X30965350Y-20559827D01*
X30965350Y-20559827D02*
X30870112Y-20607446D01*
X30870112Y-20607446D02*
X30679636Y-20607446D01*
X30679636Y-20607446D02*
X30584398Y-20559827D01*
X30584398Y-20559827D02*
X30536779Y-20512207D01*
X30536779Y-20512207D02*
X30489160Y-20416969D01*
X30489160Y-20416969D02*
X30489160Y-19607446D01*
X29489160Y-20607446D02*
X30060588Y-20607446D01*
X29774874Y-20607446D02*
X29774874Y-19607446D01*
X29774874Y-19607446D02*
X29870112Y-19750303D01*
X29870112Y-19750303D02*
X29965350Y-19845541D01*
X29965350Y-19845541D02*
X30060588Y-19893160D01*
D11*
X60786606Y-21302627D02*
X74026606Y-21302627D01*
X60786606Y-27542627D02*
X60786606Y-21302627D01*
X65026606Y-21302627D02*
X65026606Y-27522627D01*
X69786606Y-21302627D02*
X69786606Y-27522627D01*
X70106606Y-23922627D02*
X70606606Y-24922627D01*
X70606606Y-22922627D02*
X70606606Y-23922627D01*
X70606606Y-24922627D02*
X71106606Y-23922627D01*
X70606606Y-25922627D02*
X70606606Y-24922627D01*
X71106606Y-23922627D02*
X70106606Y-23922627D01*
X71106606Y-24922627D02*
X70106606Y-24922627D01*
X72406606Y-21042627D02*
X74286606Y-21042627D01*
X74026606Y-21302627D02*
X74026606Y-27542627D01*
X74026606Y-27542627D02*
X60786606Y-27542627D01*
X74286606Y-22922627D02*
X74286606Y-21042627D01*
D12*
X64336606Y-25692627D02*
G75*
G02*
X63976606Y-25692627I-180000J0D01*
G01*
X63976606Y-25692627D02*
G75*
G02*
X64336606Y-25692627I180000J0D01*
G01*
D11*
X16580000Y-21302627D02*
X29820000Y-21302627D01*
X16580000Y-27542627D02*
X16580000Y-21302627D01*
X20820000Y-21302627D02*
X20820000Y-27522627D01*
X25580000Y-21302627D02*
X25580000Y-27522627D01*
X25900000Y-23922627D02*
X26400000Y-24922627D01*
X26400000Y-22922627D02*
X26400000Y-23922627D01*
X26400000Y-24922627D02*
X26900000Y-23922627D01*
X26400000Y-25922627D02*
X26400000Y-24922627D01*
X26900000Y-23922627D02*
X25900000Y-23922627D01*
X26900000Y-24922627D02*
X25900000Y-24922627D01*
X28200000Y-21042627D02*
X30080000Y-21042627D01*
X29820000Y-21302627D02*
X29820000Y-27542627D01*
X29820000Y-27542627D02*
X16580000Y-27542627D01*
X30080000Y-22922627D02*
X30080000Y-21042627D01*
D12*
X20130000Y-25692627D02*
G75*
G02*
X19770000Y-25692627I-180000J0D01*
G01*
X19770000Y-25692627D02*
G75*
G02*
X20130000Y-25692627I180000J0D01*
G01*
%LPC*%
D13*
X72406606Y-23152627D03*
D14*
X72406606Y-25692627D03*
X62406606Y-25692627D03*
X62406606Y-23152627D03*
D13*
X28200000Y-23152627D03*
D14*
X28200000Y-25692627D03*
X18200000Y-25692627D03*
X18200000Y-23152627D03*
%LPD*%
M02*
